<?xml version="1.0" encoding="utf-8"?>
<!-- Generator: Adobe Illustrator 24.3.0, SVG Export Plug-In . SVG Version: 6.00 Build 0)  -->
<svg version="1.1" id="Layer_1" xmlns="http://www.w3.org/2000/svg" xmlns:xlink="http://www.w3.org/1999/xlink" x="0px" y="0px"
	 viewBox="0 0 850.09 499.3" style="enable-background:new 0 0 850.09 499.3;" xml:space="preserve">
<style type="text/css">
	.st0{fill:none;stroke:#FFFFFF;stroke-width:1.4005;stroke-miterlimit:10;stroke-dasharray:2.8009;}
</style>
<path class="st0" d="M803.78,361.34v-8.28h-4.38v-61.13h3.41v-8.04h3.41V172.82H578.24v4.14h-23.07c-0.07,0.09-2.09,0.18-5.7,0.26
	c1.96-8.8,3.01-17.94,3.01-27.33c0-69.01-55.94-124.95-124.95-124.95S302.59,80.9,302.59,149.9c0,9.95,1.17,19.63,3.37,28.91
	c-3.35,0-5.22-0.01-5.31-0.02h-24.17v-2.92l-233.33,0.12v111.55h2.68v7.55h5.11v61.86h-3.41v8.77h-3.41v108.63h231.14V366.94h84.51
	v5.6h132.5v-7.31h86.22v104.49h228.46V361.34H803.78z"/>
</svg>
