<?xml version="1.0" encoding="utf-8"?>
<!-- Generator: Adobe Illustrator 24.3.0, SVG Export Plug-In . SVG Version: 6.00 Build 0)  -->
<svg version="1.1" id="Layer_1" xmlns="http://www.w3.org/2000/svg" xmlns:xlink="http://www.w3.org/1999/xlink" x="0px" y="0px"
	 viewBox="0 0 576 360" style="enable-background:new 0 0 576 360;" xml:space="preserve">
<style type="text/css">
	.st0{clip-path:url(#SVGID_8_);}
	.st1{fill:none;stroke:#FFFFFF;stroke-width:0.25;stroke-miterlimit:10;}
	.st2{fill:none;stroke:#FFFFFF;stroke-width:0.25;stroke-miterlimit:10;stroke-dasharray:1.4345,1.4345;}
	.st3{fill:none;stroke:#FFFFFF;stroke-width:0.25;stroke-miterlimit:10;stroke-dasharray:1.1234,1.1234;}
	.st4{fill:none;stroke:#FFFFFF;stroke-width:0.25;stroke-miterlimit:10;stroke-dasharray:1.1447,1.1447;}
	.st5{fill:none;stroke:#FFFFFF;stroke-width:0.25;stroke-miterlimit:10;stroke-dasharray:1.3497,1.3497;}
	.st6{fill:none;stroke:#FFFFFF;stroke-width:0.25;stroke-miterlimit:10;stroke-dasharray:1.5198,1.5198;}
	.st7{fill:none;stroke:#FFFFFF;stroke-width:0.25;stroke-miterlimit:10;stroke-dasharray:1.5158,1.5158;}
	.st8{fill:none;stroke:#FFFFFF;stroke-width:0.25;stroke-miterlimit:10;stroke-dasharray:1.3111,1.3111;}
	.st9{fill:none;stroke:#FFFFFF;stroke-width:0.25;stroke-miterlimit:10;stroke-dasharray:1.1054,1.1054;}
	.st10{fill:none;stroke:#FFFFFF;stroke-width:0.25;stroke-miterlimit:10;stroke-dasharray:1.4978,1.4978;}
	.st11{fill:none;stroke:#FFFFFF;stroke-width:0.25;stroke-miterlimit:10;stroke-dasharray:1.438,1.438;}
	.st12{fill:none;stroke:#FFFFFF;stroke-width:0.25;stroke-miterlimit:10;stroke-dasharray:1.4987,1.4987;}
	.st13{fill:none;stroke:#FFFFFF;stroke-width:0.25;stroke-miterlimit:10;stroke-dasharray:1.4419,1.4419;}
	.st14{fill:none;stroke:#FFFFFF;stroke-width:0.25;stroke-miterlimit:10;stroke-dasharray:1.443,1.443;}
	.st15{fill:none;stroke:#FFFFFF;stroke-width:0.25;stroke-miterlimit:10;stroke-dasharray:1.4441,1.4441;}
	.st16{fill:none;stroke:#FFFFFF;stroke-width:0.25;stroke-miterlimit:10;stroke-dasharray:1.4382,1.4382;}
	.st17{fill:none;stroke:#FFFFFF;stroke-width:0.25;stroke-miterlimit:10;stroke-dasharray:1.4397,1.4397;}
	.st18{fill:none;stroke:#FFFFFF;stroke-width:0.25;stroke-miterlimit:10;stroke-dasharray:1.4359,1.4359;}
	.st19{fill:none;stroke:#FFFFFF;stroke-width:0.25;stroke-miterlimit:10;stroke-dasharray:1.4432,1.4432;}
	.st20{fill:none;stroke:#FFFFFF;stroke-width:0.25;stroke-miterlimit:10;stroke-dasharray:1.4287,1.4287;}
	.st21{fill:none;stroke:#FFFFFF;stroke-width:0.25;stroke-miterlimit:10;stroke-dasharray:1.4405,1.4405;}
	.st22{clip-path:url(#SVGID_20_);}
	.st23{fill:none;stroke:#FFFFFF;stroke-width:0.25;stroke-miterlimit:10;stroke-dasharray:1.4175,1.4175;}
	.st24{clip-path:url(#SVGID_21_);}
	.st25{fill:none;stroke:#FFFFFF;stroke-width:0.25;stroke-miterlimit:10;stroke-dasharray:1.4593,1.4593;}
	.st26{clip-path:url(#SVGID_22_);}
	.st27{fill:none;stroke:#FFFFFF;stroke-width:0.25;stroke-miterlimit:10;stroke-dasharray:1.4158,1.4158;}
	.st28{clip-path:url(#SVGID_23_);}
	.st29{fill:none;stroke:#FFFFFF;stroke-width:0.25;stroke-miterlimit:10;stroke-dasharray:1.4404,1.4404;}
	.st30{clip-path:url(#SVGID_24_);}
	.st31{fill:none;stroke:#FFFFFF;stroke-width:0.25;stroke-miterlimit:10;stroke-dasharray:1.4258,1.4258;}
	.st32{clip-path:url(#SVGID_25_);}
	.st33{fill:none;stroke:#FFFFFF;stroke-width:0.25;stroke-miterlimit:10;stroke-dasharray:1.4321,1.4321;}
	.st34{clip-path:url(#SVGID_26_);}
	.st35{fill:none;stroke:#FFFFFF;stroke-width:0.25;stroke-miterlimit:10;stroke-dasharray:1.4409,1.4409;}
	.st36{clip-path:url(#SVGID_27_);}
	.st37{fill:none;stroke:#FFFFFF;stroke-width:0.25;stroke-miterlimit:10;stroke-dasharray:1.4291,1.4291;}
	.st38{clip-path:url(#SVGID_28_);}
	.st39{fill:none;stroke:#FFFFFF;stroke-width:0.25;stroke-miterlimit:10;stroke-dasharray:1.4426,1.4426;}
	.st40{clip-path:url(#SVGID_29_);}
	.st41{fill:none;stroke:#FFFFFF;stroke-width:0.25;stroke-miterlimit:10;stroke-dasharray:1.4489,1.4489;}
	.st42{clip-path:url(#SVGID_30_);}
	.st43{fill:none;stroke:#FFFFFF;stroke-width:0.25;stroke-miterlimit:10;stroke-dasharray:1.4554,1.4554;}
	.st44{clip-path:url(#SVGID_31_);}
	.st45{fill:none;stroke:#FFFFFF;stroke-width:0.25;stroke-miterlimit:10;stroke-dasharray:1.4541,1.4541;}
	.st46{clip-path:url(#SVGID_32_);}
	.st47{fill:none;stroke:#FFFFFF;stroke-width:0.25;stroke-miterlimit:10;stroke-dasharray:1.4586,1.4586;}
	.st48{clip-path:url(#SVGID_33_);}
	.st49{fill:none;stroke:#FFFFFF;stroke-width:0.25;stroke-miterlimit:10;stroke-dasharray:1.4546,1.4546;}
	.st50{clip-path:url(#SVGID_34_);}
	.st51{fill:none;stroke:#FFFFFF;stroke-width:0.25;stroke-miterlimit:10;stroke-dasharray:1.437,1.437;}
	.st52{clip-path:url(#SVGID_35_);}
	.st53{clip-path:url(#SVGID_36_);}
	.st54{fill:none;stroke:#FFFFFF;stroke-width:0.25;stroke-miterlimit:10;stroke-dasharray:1.4244,1.4244;}
	.st55{clip-path:url(#SVGID_37_);}
	.st56{fill:none;stroke:#FFFFFF;stroke-width:0.25;stroke-miterlimit:10;stroke-dasharray:1.4699,1.4699;}
	.st57{clip-path:url(#SVGID_38_);}
	.st58{fill:none;stroke:#FFFFFF;stroke-width:0.25;stroke-miterlimit:10;stroke-dasharray:1.5087,1.5087;}
	.st59{fill:none;stroke:#FFFFFF;stroke-width:0.25;stroke-miterlimit:10;stroke-dasharray:1.4309,1.4309;}
	.st60{fill:none;stroke:#FFFFFF;stroke-width:0.25;stroke-miterlimit:10;stroke-dasharray:1.4347,1.4347;}
	.st61{fill:none;stroke:#FFFFFF;stroke-width:0.25;stroke-miterlimit:10;stroke-dasharray:1.4302,1.4302;}
	.st62{fill:none;stroke:#FFFFFF;stroke-width:0.25;stroke-miterlimit:10;stroke-dasharray:1.1072,1.1072;}
	.st63{fill:none;stroke:#FFFFFF;stroke-width:0.25;stroke-miterlimit:10;stroke-dasharray:1.065,1.065;}
	.st64{fill:none;stroke:#FFFFFF;stroke-width:0.25;stroke-miterlimit:10;stroke-dasharray:1.4656,1.4656;}
	.st65{fill:none;stroke:#FFFFFF;stroke-width:0.25;stroke-miterlimit:10;stroke-dasharray:1.4491,1.4491;}
	.st66{fill:none;stroke:#FFFFFF;stroke-width:0.25;stroke-miterlimit:10;stroke-dasharray:1.3833,1.3833;}
	.st67{fill:none;stroke:#FFFFFF;stroke-width:0.25;stroke-miterlimit:10;stroke-dasharray:1.4131,1.4131;}
	.st68{fill:none;stroke:#FFFFFF;stroke-width:0.25;stroke-miterlimit:10;stroke-dasharray:1.1064,1.1064;}
	.st69{clip-path:url(#SVGID_39_);}
	.st70{clip-path:url(#SVGID_40_);}
	.st71{clip-path:url(#SVGID_41_);}
	.st72{clip-path:url(#SVGID_42_);}
	.st73{clip-path:url(#SVGID_43_);}
	.st74{clip-path:url(#SVGID_44_);}
	.st75{clip-path:url(#SVGID_45_);}
	.st76{clip-path:url(#SVGID_46_);}
	.st77{clip-path:url(#SVGID_47_);}
	.st78{clip-path:url(#SVGID_48_);}
	.st79{clip-path:url(#SVGID_49_);}
	.st80{clip-path:url(#SVGID_50_);}
	.st81{clip-path:url(#SVGID_51_);}
	.st82{clip-path:url(#SVGID_52_);}
	.st83{clip-path:url(#SVGID_53_);}
	.st84{clip-path:url(#SVGID_54_);}
	.st85{clip-path:url(#SVGID_55_);}
	.st86{clip-path:url(#SVGID_56_);}
	.st87{clip-path:url(#SVGID_57_);}
</style>
<g>
	<g>
		<g>
			<defs>
				<path id="SVGID_197_" d="M561.15,259.37v-5.96h-2.43v-44.03h1.74v-5.79h2.46v-79.28h-164.2v2.26h-16.62
					c-0.05,0.06-1.51,0.13-4.11,0.19c1.41-6.34,2.17-12.92,2.17-19.68c0-49.7-40.29-90-90-90s-89.99,40.31-89.99,90
					c0,7.17,0.84,14.14,2.43,20.82c-2.41,0-3.76-0.01-3.82-0.01h-17.41v-2.82l-168.06,0.09v81.06h1.93v5.44h3.68v44.55h-2.46v6.32
					h-3.9v80.4l167.92-0.72v-78.8h60.87v5.47h95.43v-6.71h62.1v76.7h164.55v-79.5H561.15z"/>
			</defs>
			<clipPath id="SVGID_8_">
				<use xlink:href="#SVGID_197_"  style="overflow:visible;"/>
			</clipPath>
			<g class="st0">
				<g>
					<g>
						<path class="st1" d="M503.86,236.85h-0.72c0.23,0.06,0.47,0.12,0.7,0.17"/>
						<path class="st2" d="M505.23,237.39c4.47,1.22,8.76,2.77,12.81,4.62"/>
						<path class="st1" d="M518.69,242.32c0.22,0.1,0.43,0.2,0.65,0.31c-0.06-0.23-0.13-0.46-0.19-0.7"/>
						<path class="st3" d="M518.9,240.84c-0.11-0.55-0.19-1.1-0.24-1.66"/>
						<path class="st1" d="M518.61,238.61c-0.02-0.24-0.04-0.48-0.04-0.72c-0.22-0.09-0.44-0.19-0.66-0.28"/>
						<path class="st4" d="M516.84,237.17c-0.53-0.22-1.06-0.42-1.59-0.63"/>
						<path class="st1" d="M514.71,236.34c-0.22-0.09-0.45-0.17-0.68-0.25v0.76h-0.72"/>
						<line class="st5" x1="511.96" y1="236.85" x2="504.54" y2="236.85"/>
					</g>
				</g>
				<g>
					<g>
						<path class="st1" d="M439.79,243.75c-0.04,0.24-0.09,0.48-0.13,0.71c0.21-0.12,0.42-0.23,0.63-0.34"/>
						<path class="st6" d="M441.63,243.42c5.06-2.57,10.52-4.67,16.31-6.2"/>
						<path class="st1" d="M458.68,237.03c0.23-0.06,0.47-0.12,0.7-0.17h-0.72"/>
						<line class="st7" x1="457.15" y1="236.85" x2="448.81" y2="236.85"/>
						<path class="st1" d="M448.05,236.85h-0.72v-0.32c-0.22,0.09-0.45,0.17-0.67,0.26"/>
						<path class="st8" d="M445.44,237.28c-1.43,0.58-2.82,1.2-4.2,1.85"/>
						<path class="st1" d="M440.65,239.41c-0.22,0.1-0.43,0.21-0.65,0.32v0.72"/>
						<path class="st9" d="M440,241.55c-0.01,0.56-0.06,1.11-0.13,1.66"/>
					</g>
				</g>
				<g>
					<g>
						<path class="st1" d="M546.24,257.68c-0.16-0.18-0.32-0.36-0.48-0.54h-0.72"/>
						<line class="st10" x1="543.55" y1="257.14" x2="541.3" y2="257.14"/>
						<path class="st1" d="M540.55,257.14h-0.72c0.17,0.17,0.33,0.35,0.5,0.52"/>
						<path class="st11" d="M541.32,258.71c9,9.87,14.3,22.05,14.3,35.22c0,32.98-33.28,59.72-74.34,59.72s-74.34-26.74-74.34-59.72
							c0-13.41,5.52-25.79,14.81-35.75"/>
						<path class="st1" d="M422.24,257.66c0.17-0.17,0.33-0.35,0.5-0.52h-0.72"/>
						<line class="st12" x1="420.52" y1="257.14" x2="418.27" y2="257.14"/>
						<path class="st1" d="M417.52,257.14h-0.72c-0.16,0.18-0.32,0.36-0.48,0.54"/>
						<path class="st13" d="M415.39,258.78c-8.34,10.07-13.21,22.15-13.21,35.16c0,35.09,35.41,63.54,79.1,63.54
							s79.1-28.45,79.1-63.54c0-13.24-5.04-25.53-13.66-35.71"/>
					</g>
				</g>
				<g>
					<g>
						<path class="st14" d="M532.23,256.09c-3.73-1.25-6.97-3.57-9.36-6.6c-11.65-6.85-26.02-10.9-41.59-10.9
							c-17.35,0-33.23,5.03-45.48,13.35c-1.35,1.48-2.98,2.7-4.81,3.59c-12.34,10.11-19.94,23.91-19.94,39.15
							c0,30.98,31.45,56.09,70.23,56.09s70.23-25.11,70.23-56.09C551.51,279.73,544.18,266.15,532.23,256.09z"/>
						<ellipse class="st15" cx="481.28" cy="293.93" rx="66.08" ry="53.08"/>
					</g>
				</g>
				<g>
					<g>
						<ellipse class="st16" cx="481.28" cy="294.6" rx="62.42" ry="49.85"/>
						<ellipse class="st17" cx="481.28" cy="295.37" rx="58.56" ry="46.51"/>
					</g>
				</g>
				<g>
					<g>
						<ellipse class="st18" cx="481.28" cy="295.32" rx="55.32" ry="43.03"/>
						<ellipse class="st19" cx="481.28" cy="296.04" rx="50.97" ry="39.64"/>
					</g>
				</g>
			</g>
		</g>
	</g>
	<g id="XMLID_85_">
		<g>
			<path class="st20" d="M403.91,204.38v51.97h20.2c8.74,0,15.83-7.09,15.83-15.84v-36.13H403.91z"/>
			<path class="st20" d="M415.65,218.04v25.18c0,0.54,0.44,0.99,0.99,0.99h6.09c3.11,0,5.63-2.52,5.63-5.63v-20.53
				c0-0.54-0.44-0.99-0.99-0.99h-10.74C416.09,217.05,415.65,217.5,415.65,218.04z"/>
		</g>
	</g>
	<g>
		<g id="XMLID_84_">
			<g>
				<path class="st21" d="M273.19,164.45l9.15,1.93c0.73,0.09,1.46,0.18,2.2,0.24c1.71,0.16,3.44,0.24,5.19,0.24
					c1.78,0,3.54-0.09,5.27-0.25c0.82-0.07,1.63-0.17,2.45-0.27l8.51-1.81c0.14-0.04,0.29-0.09,0.43-0.13
					c3.71-1.12,7.26-2.6,10.61-4.4c3.41-1.84,6.61-4,9.56-6.45c2.8-2.34,5.39-4.93,7.71-7.76c2.44-2.97,4.6-6.19,6.42-9.61
					c1.71-3.23,3.14-6.65,4.22-10.21c0.44-1.42,0.82-2.86,1.15-4.32l1.02-7.04l0.11-0.01c0.18-1.84,0.27-3.71,0.27-5.6
					c0-1.79-0.08-3.57-0.24-5.32c-0.1-1.09-0.23-2.18-0.39-3.26l-1.3-6.32c-0.16-0.61-0.33-1.2-0.51-1.8
					c-1.07-3.58-2.48-7.02-4.2-10.27c-1.8-3.44-3.93-6.66-6.37-9.64c-2.41-2.97-5.11-5.68-8.06-8.11l-0.04,0.04l-9.42-6.37
					c-0.08-0.04-0.15-0.08-0.23-0.12c-3.21-1.71-6.6-3.1-10.14-4.18c-0.29-0.09-0.57-0.18-0.86-0.26l-5.79-1.35
					c-1.55-0.27-3.12-0.5-4.71-0.65c-1.8-0.17-3.62-0.27-5.47-0.27c-1.84,0-3.66,0.09-5.45,0.27c-1.64,0.15-3.26,0.38-4.87,0.67
					l-5.55,1.3c-0.32,0.09-0.63,0.18-0.94,0.28c-3.53,1.07-6.92,2.47-10.13,4.18c-0.06,0.03-0.13,0.06-0.19,0.1l-9.45,6.4
					l-0.05-0.05c-2.95,2.43-5.65,5.16-8.07,8.13c-2.43,2.98-4.57,6.22-6.38,9.66c-1.7,3.24-3.1,6.67-4.18,10.24
					c-0.13,0.43-0.26,0.88-0.38,1.32l-1.51,7.32c-0.13,0.91-0.23,1.83-0.32,2.75c-0.17,1.74-0.25,3.51-0.25,5.3
					c0,1.89,0.1,3.77,0.27,5.61l0.16,0.02l1.09,7.58c0.3,1.27,0.64,2.54,1.02,3.78c1.07,3.52,2.48,6.91,4.18,10.11
					c1.82,3.44,3.97,6.66,6.42,9.64c2.44,2.97,5.18,5.7,8.16,8.15c2.98,2.43,6.2,4.57,9.63,6.37c3.23,1.71,6.63,3.1,10.19,4.18"/>
				<polyline class="st21" points="262.77,57.8 260.75,52.25 249.05,60.05 253.09,64.27 				"/>
				<polyline class="st21" points="234.36,92.28 229.04,89.71 226.1,103.46 232.01,103.67 				"/>
				<polyline class="st21" points="232.28,114.6 226.57,114.02 228.47,127.94 234.1,126.14 				"/>
				<polyline class="st21" points="284.24,50.94 284.34,45.04 270.63,48.13 272.91,53.59 				"/>
				<polyline class="st21" points="273.19,164.45 273.13,164.43 270.54,169.73 284.27,172.75 284.52,166.84 				"/>
				<polyline class="st21" points="326.39,64.29 330.43,60.05 318.73,52.26 316.71,57.8 				"/>
				<polyline class="st21" points="347.5,103.66 353.4,103.45 350.46,89.7 345.15,92.26 				"/>
				<polyline class="st21" points="345.41,126.13 351.05,127.94 352.95,114.01 347.19,114.6 				"/>
				<polyline class="st21" points="306.57,53.59 308.85,48.13 295.13,45.06 295.24,50.96 				"/>
				<polyline class="st21" points="295.03,166.85 295.27,172.77 309,169.74 306.41,164.44 				"/>
				<polyline class="st21" points="317.33,160.5 317.28,160.53 319.44,166.02 330.94,157.95 326.75,153.77 				"/>
				<polyline class="st21" points="334.67,146.12 339.07,150.07 346.5,138.13 340.89,136.28 				"/>
				<polyline class="st21" points="341.24,81.81 346.6,79.46 338.8,67.77 334.81,72.11 				"/>
				<polyline class="st21" points="244.85,72.27 240.96,67.84 232.88,79.34 238.18,81.82 				"/>
				<polyline class="st21" points="238.28,136.33 232.85,138.19 240.42,150.04 244.78,146.04 				"/>
				<polyline class="st21" points="253.24,153.97 253.19,153.94 248.8,157.87 260.38,165.84 262.83,160.46 				"/>
			</g>
		</g>
	</g>
	<g>
		<g>
			<defs>
				<path id="SVGID_196_" d="M286.35,55.67v104.7c-27.12-1.98-48.52-24.65-48.52-52.35S259.23,57.65,286.35,55.67z"/>
			</defs>
			<clipPath id="SVGID_20_">
				<use xlink:href="#SVGID_196_"  style="overflow:visible;"/>
			</clipPath>
			<g class="st22">
				<g>
					<path class="st1" d="M315.03,62.05c-0.05,0.18-0.12,0.4-0.23,0.68"/>
					<path class="st23" d="M314.23,64.03c-2.51,5.19-10.54,17.03-24.13,16.7c-14.22-0.35-21.4-12.71-23.31-17.33"/>
					<path class="st1" d="M266.52,62.73c-0.1-0.28-0.17-0.51-0.22-0.68"/>
				</g>
			</g>
		</g>
		<g>
			<defs>
				<path id="SVGID_195_" d="M286.35,55.67v104.7c-27.12-1.98-48.52-24.65-48.52-52.35S259.23,57.65,286.35,55.67z"/>
			</defs>
			<clipPath id="SVGID_21_">
				<use xlink:href="#SVGID_195_"  style="overflow:visible;"/>
			</clipPath>
			<g class="st24">
				<g>
					<path class="st1" d="M318.12,64.12c-0.01,0.21-0.06,0.45-0.13,0.71"/>
					<path class="st25" d="M317.51,66.2c-2.64,6.17-13.43,19.19-27.42,18.85c-14.74-0.36-24.36-12.77-26.94-18.59"/>
					<path class="st1" d="M262.88,65.78c-0.09-0.24-0.17-0.47-0.23-0.68"/>
				</g>
			</g>
		</g>
		<g>
			<defs>
				<path id="SVGID_193_" d="M286.35,55.67v104.7c-27.12-1.98-48.52-24.65-48.52-52.35S259.23,57.65,286.35,55.67z"/>
			</defs>
			<clipPath id="SVGID_22_">
				<use xlink:href="#SVGID_193_"  style="overflow:visible;"/>
			</clipPath>
			<g class="st26">
				<g>
					<path class="st1" d="M322.35,66.37c-0.01,0.23-0.04,0.47-0.09,0.71"/>
					<path class="st27" d="M321.91,68.45c-2.73,8.22-17.24,21.28-31.81,20.92c-15.06-0.37-27.63-12.89-30.84-20.21"/>
					<path class="st1" d="M258.98,68.51c-0.09-0.23-0.17-0.46-0.23-0.68"/>
				</g>
			</g>
		</g>
		<g>
			<defs>
				<path id="SVGID_192_" d="M286.35,55.67v104.7c-27.12-1.98-48.52-24.65-48.52-52.35S259.23,57.65,286.35,55.67z"/>
			</defs>
			<clipPath id="SVGID_23_">
				<use xlink:href="#SVGID_192_"  style="overflow:visible;"/>
			</clipPath>
			<g class="st28">
				<g>
					<path class="st1" d="M325.74,69.19c-0.05,0.22-0.11,0.46-0.18,0.7"/>
					<path class="st29" d="M325.09,71.25c-3.48,8.84-17.33,22.82-35.9,22.24c-16.09-0.5-29.62-13.14-32.89-21.43"/>
					<path class="st1" d="M256.05,71.38c-0.08-0.23-0.15-0.46-0.21-0.68"/>
				</g>
			</g>
		</g>
		<g>
			<defs>
				<path id="SVGID_191_" d="M286.35,55.67v104.7c-27.12-1.98-48.52-24.65-48.52-52.35S259.23,57.65,286.35,55.67z"/>
			</defs>
			<clipPath id="SVGID_24_">
				<use xlink:href="#SVGID_191_"  style="overflow:visible;"/>
			</clipPath>
			<g class="st30">
				<g>
					<path class="st1" d="M329.21,72.85c-0.01,0.23-0.05,0.47-0.09,0.71"/>
					<path class="st31" d="M328.74,74.94c-2.99,8.46-19.48,23.12-38.65,23.08c-15.38-0.03-33.81-11.97-37.5-23"/>
					<path class="st1" d="M252.38,74.34c-0.06-0.23-0.12-0.46-0.17-0.7"/>
				</g>
			</g>
		</g>
		<g>
			<defs>
				<path id="SVGID_190_" d="M286.35,55.67v104.7c-27.12-1.98-48.52-24.65-48.52-52.35S259.23,57.65,286.35,55.67z"/>
			</defs>
			<clipPath id="SVGID_25_">
				<use xlink:href="#SVGID_190_"  style="overflow:visible;"/>
			</clipPath>
			<g class="st32">
				<g>
					<path class="st1" d="M331.78,76.27c-0.09,0.22-0.19,0.44-0.29,0.66"/>
					<path class="st33" d="M330.89,78.22c-6.79,13.92-22.49,24.49-41.7,24.63c-18.55,0.14-36.08-15.64-39.74-24.24"/>
					<path class="st1" d="M249.2,77.95c-0.09-0.24-0.16-0.46-0.22-0.68"/>
				</g>
			</g>
		</g>
		<g>
			<defs>
				<path id="SVGID_189_" d="M286.35,55.67v104.7c-27.12-1.98-48.52-24.65-48.52-52.35S259.23,57.65,286.35,55.67z"/>
			</defs>
			<clipPath id="SVGID_26_">
				<use xlink:href="#SVGID_189_"  style="overflow:visible;"/>
			</clipPath>
			<g class="st34">
				<g>
					<path class="st1" d="M335.25,80.65c-0.06,0.22-0.14,0.45-0.22,0.68"/>
					<path class="st35" d="M334.47,82.65c-5.5,11.29-29.39,25.11-44.37,24.74c-15.28-0.37-39.12-13.88-42.55-23.65"/>
					<path class="st1" d="M247.34,83.04c-0.06-0.24-0.11-0.47-0.14-0.71"/>
				</g>
			</g>
		</g>
		<g>
			<defs>
				<path id="SVGID_188_" d="M286.35,55.67v104.7c-27.12-1.98-48.52-24.65-48.52-52.35S259.23,57.65,286.35,55.67z"/>
			</defs>
			<clipPath id="SVGID_27_">
				<use xlink:href="#SVGID_188_"  style="overflow:visible;"/>
			</clipPath>
			<g class="st36">
				<g>
					<path class="st1" d="M337.45,84.53c-0.05,0.22-0.12,0.45-0.19,0.69"/>
					<path class="st37" d="M336.7,86.54c-4.54,9.08-26.17,24.93-47.51,24.97c-17.29,0.04-40.33-15.62-44.55-24.2"/>
					<path class="st1" d="M244.36,86.66c-0.09-0.23-0.17-0.46-0.23-0.68"/>
				</g>
			</g>
		</g>
		<g>
			<defs>
				<path id="SVGID_187_" d="M286.35,55.67v104.7c-27.12-1.98-48.52-24.65-48.52-52.35S259.23,57.65,286.35,55.67z"/>
			</defs>
			<clipPath id="SVGID_28_">
				<use xlink:href="#SVGID_187_"  style="overflow:visible;"/>
			</clipPath>
			<g class="st38">
				<g>
					<path class="st1" d="M339.83,89.39c-0.01,0.23-0.06,0.46-0.12,0.71"/>
					<path class="st39" d="M339.19,91.44c-4.35,8.66-29.88,24.64-49.09,24.6c-15.43-0.03-42.11-13.06-47.56-24.53"/>
					<path class="st1" d="M242.25,90.84c-0.09-0.22-0.17-0.45-0.24-0.67"/>
				</g>
			</g>
		</g>
		<g>
			<defs>
				<path id="SVGID_186_" d="M286.35,55.67v104.7c-27.12-1.98-48.52-24.65-48.52-52.35S259.23,57.65,286.35,55.67z"/>
			</defs>
			<clipPath id="SVGID_29_">
				<use xlink:href="#SVGID_186_"  style="overflow:visible;"/>
			</clipPath>
			<g class="st40">
				<g>
					<path class="st1" d="M341.89,93.68c-0.1,0.22-0.21,0.43-0.32,0.64"/>
					<path class="st41" d="M340.88,95.6c-8.55,14.71-32.41,24.42-51.69,24.57c-18.7,0.14-43.23-14.25-48.68-23.75"/>
					<path class="st1" d="M240.16,95.78c-0.11-0.22-0.21-0.44-0.3-0.66"/>
				</g>
			</g>
		</g>
		<g>
			<defs>
				<path id="SVGID_185_" d="M286.35,55.67v104.7c-27.12-1.98-48.52-24.65-48.52-52.35S259.23,57.65,286.35,55.67z"/>
			</defs>
			<clipPath id="SVGID_30_">
				<use xlink:href="#SVGID_185_"  style="overflow:visible;"/>
			</clipPath>
			<g class="st42">
				<g>
					<path class="st1" d="M342.89,99.16c-0.1,0.22-0.21,0.43-0.32,0.64"/>
					<path class="st43" d="M341.87,101.08c-8.64,14.62-33.41,23.26-52.69,23.41c-18.7,0.14-43.96-13.14-49.49-22.53"/>
					<path class="st1" d="M239.35,101.32c-0.11-0.22-0.21-0.44-0.3-0.66"/>
				</g>
			</g>
		</g>
		<g>
			<defs>
				<path id="SVGID_184_" d="M286.35,55.67v104.7c-27.12-1.98-48.52-24.65-48.52-52.35S259.23,57.65,286.35,55.67z"/>
			</defs>
			<clipPath id="SVGID_31_">
				<use xlink:href="#SVGID_184_"  style="overflow:visible;"/>
			</clipPath>
			<g class="st44">
				<g>
					<path class="st1" d="M342.52,107.08c-0.12,0.2-0.25,0.4-0.39,0.61"/>
					<path class="st45" d="M341.23,108.83c-7.25,8.37-31.68,19.95-51.14,20.2c-17.88,0.22-43.06-11.81-51.04-21.48"/>
					<path class="st1" d="M238.6,106.97c-0.15-0.19-0.29-0.39-0.42-0.58"/>
				</g>
			</g>
		</g>
		<g>
			<defs>
				<path id="SVGID_183_" d="M286.35,55.67v104.7c-27.12-1.98-48.52-24.65-48.52-52.35S259.23,57.65,286.35,55.67z"/>
			</defs>
			<clipPath id="SVGID_32_">
				<use xlink:href="#SVGID_183_"  style="overflow:visible;"/>
			</clipPath>
			<g class="st46">
				<g>
					<path class="st1" d="M342.58,112.78c-0.17,0.17-0.35,0.32-0.53,0.49"/>
					<path class="st47" d="M340.96,114.23c-12.52,10.83-32.09,19.21-51.3,18.98c-17.78-0.21-38.46-8.51-49.73-19.08"/>
					<path class="st1" d="M239.41,113.63c-0.17-0.17-0.35-0.34-0.51-0.5"/>
				</g>
			</g>
		</g>
		<g>
			<defs>
				<path id="SVGID_182_" d="M286.35,55.67v104.7c-27.12-1.98-48.52-24.65-48.52-52.35S259.23,57.65,286.35,55.67z"/>
			</defs>
			<clipPath id="SVGID_33_">
				<use xlink:href="#SVGID_182_"  style="overflow:visible;"/>
			</clipPath>
			<g class="st48">
				<g>
					<path class="st1" d="M341.75,119.55c-0.17,0.16-0.35,0.32-0.53,0.48"/>
					<path class="st49" d="M340.11,120.97c-11.39,9.43-31.78,16.34-50.93,16.49c-18.42,0.14-42.65-10.9-48.69-17.18"/>
					<path class="st1" d="M240.01,119.75c-0.17-0.19-0.31-0.39-0.42-0.58"/>
				</g>
			</g>
		</g>
		<g>
			<defs>
				<path id="SVGID_181_" d="M286.35,55.67v104.7c-27.12-1.98-48.52-24.65-48.52-52.35S259.23,57.65,286.35,55.67z"/>
			</defs>
			<clipPath id="SVGID_34_">
				<use xlink:href="#SVGID_181_"  style="overflow:visible;"/>
			</clipPath>
			<g class="st50">
				<g>
					<path class="st1" d="M339.26,126.64c-0.17,0.14-0.35,0.3-0.55,0.45"/>
					<path class="st51" d="M337.54,127.93c-7.53,5.11-28.33,14.1-47.45,14.07c-15.26-0.03-39.75-7.22-46.93-14.4"/>
					<path class="st1" d="M242.67,127.07c-0.17-0.19-0.32-0.37-0.45-0.55"/>
				</g>
			</g>
		</g>
		<g>
			<defs>
				<path id="SVGID_180_" d="M286.35,55.67v104.7c-27.12-1.98-48.52-24.65-48.52-52.35S259.23,57.65,286.35,55.67z"/>
			</defs>
			<clipPath id="SVGID_35_">
				<use xlink:href="#SVGID_180_"  style="overflow:visible;"/>
			</clipPath>
			<g class="st52">
				<g>
					<path class="st1" d="M336.07,133.83c-0.17,0.15-0.36,0.3-0.55,0.45"/>
					<path class="st15" d="M334.34,135.11c-7.14,4.71-25.19,11.24-44.24,11.21c-15.2-0.03-35.93-6.14-43.53-11.72"/>
					<path class="st1" d="M245.99,134.17c-0.19-0.16-0.37-0.31-0.55-0.47"/>
				</g>
			</g>
		</g>
		<g>
			<defs>
				<path id="SVGID_179_" d="M286.35,55.67v104.7c-27.12-1.98-48.52-24.65-48.52-52.35S259.23,57.65,286.35,55.67z"/>
			</defs>
			<clipPath id="SVGID_36_">
				<use xlink:href="#SVGID_179_"  style="overflow:visible;"/>
			</clipPath>
			<g class="st53">
				<g>
					<path class="st1" d="M331.28,141.29c-0.2,0.12-0.41,0.24-0.62,0.36"/>
					<path class="st54" d="M329.41,142.33c-7.2,3.8-20.24,8.34-39.31,8.31c-15.16-0.03-29.72-3.95-37.29-8.15"/>
					<path class="st1" d="M252.18,142.13c-0.21-0.12-0.42-0.24-0.61-0.37"/>
				</g>
			</g>
		</g>
		<g>
			<defs>
				<path id="SVGID_178_" d="M286.35,55.67v104.7c-27.12-1.98-48.52-24.65-48.52-52.35S259.23,57.65,286.35,55.67z"/>
			</defs>
			<clipPath id="SVGID_37_">
				<use xlink:href="#SVGID_178_"  style="overflow:visible;"/>
			</clipPath>
			<g class="st55">
				<g>
					<path class="st1" d="M322.5,149.61c-0.22,0.08-0.45,0.16-0.68,0.24"/>
					<path class="st56" d="M320.44,150.34c-6.89,2.44-14.04,4.62-29.02,5.03c-13.28,0.35-23.07-2.95-30.83-5.14"/>
					<path class="st1" d="M259.86,150.03c-0.23-0.06-0.46-0.13-0.69-0.19"/>
				</g>
			</g>
		</g>
		<g>
			<defs>
				<path id="SVGID_177_" d="M286.35,55.67v104.7c-27.12-1.98-48.52-24.65-48.52-52.35S259.23,57.65,286.35,55.67z"/>
			</defs>
			<clipPath id="SVGID_38_">
				<use xlink:href="#SVGID_177_"  style="overflow:visible;"/>
			</clipPath>
			<g class="st57">
				<g>
					<path class="st1" d="M304.28,158.25c-0.22,0.07-0.45,0.14-0.69,0.2"/>
					<path class="st58" d="M302.13,158.79c-3.13,0.64-7.26,0.98-11.39,0.96c-4.14-0.02-8.87-0.53-11.88-1.1"/>
					<path class="st1" d="M278.11,158.5c-0.25-0.05-0.48-0.11-0.7-0.16"/>
				</g>
			</g>
		</g>
	</g>
	<path class="st21" d="M561.15,259.37v-5.96h-2.43v-44.03h1.74v-5.79h2.46v-79.28h-164.2v2.26h-16.62
		c-0.05,0.06-1.51,0.13-4.11,0.19c1.41-6.34,2.17-12.92,2.17-19.68c0-49.7-40.29-90-90-90s-89.99,40.31-89.99,90
		c0,7.17,0.84,14.14,2.43,20.82c-2.41,0-3.76-0.01-3.82-0.01h-17.41v-2.82l-168.06,0.09v81.06h1.93v5.44h3.68v44.55h-2.46v6.32h-3.9
		v80.4l167.92-0.72v-78.8h60.87v5.47h95.43v-6.71h62.1v76.7h164.55v-79.5H561.15z"/>
	<rect x="251.8" y="212.05" class="st21" width="76.28" height="41.52"/>
	<g id="XMLID_83_">
		<g>
			<rect x="447.4" y="208.29" class="st59" width="66.7" height="28"/>
		</g>
	</g>
	<path class="st21" d="M398.43,159.16h-30.52v-12.22c0-7.01,5.68-12.68,12.68-12.68h17.83V159.16z"/>
	<g id="XMLID_82_">
		<g>
			<path class="st21" d="M184.25,155.49h22.46v-10.07c0-3.83-3.1-6.93-6.93-6.93h-15.53V155.49z"/>
			<path class="st21" d="M179.53,159.34h31.67v-12.39c0-7.01-5.68-12.68-12.68-12.68h-18.99V159.34z"/>
		</g>
	</g>
	<g id="XMLID_81_">
		<g>
			<path class="st21" d="M184.25,200.97h46.88v-16.72c0-9.03-7.32-16.35-16.35-16.35h-30.53V200.97z"/>
			<path class="st21" d="M179.53,204.85h55.74v-20.66c0-11.9-9.64-21.54-21.54-21.54h-34.2V204.85z"/>
		</g>
	</g>
	<g id="XMLID_80_">
		<g>
			<rect x="410.94" y="137.65" class="st21" width="45.47" height="57.12"/>
			<rect x="407.21" y="132.95" class="st21" width="52.95" height="66.52"/>
		</g>
	</g>
	<g id="XMLID_79_">
		<g>
			<rect x="469.19" y="136.33" class="st21" width="83.04" height="58.43"/>
			<rect x="465.8" y="132.58" class="st21" width="89.63" height="65.95"/>
		</g>
	</g>
	<ellipse class="st21" cx="97.68" cy="233.37" rx="60.55" ry="78.26"/>
	<g>
		<ellipse class="st60" cx="481.34" cy="295.85" rx="44.53" ry="34.64"/>
	</g>
	<g id="XMLID_78_">
		<g>
			<path class="st61" d="M555.81,204.24h-36.93v32.24c0,11.11,9,20.1,20.1,20.1h16.83V204.24z"/>
		</g>
	</g>
	<line class="st21" x1="275.3" y1="47.15" x2="269.33" y2="32.93"/>
	<g>
		<g>
			<path class="st1" d="M277.16,58.54c0.04,0.09,0.12,0.26,0.21,0.5"/>
			<path class="st62" d="M277.8,60.06c1.3,2.92,4.69,8.82,12.58,8.51c8.42-0.33,11.58-6.4,12.58-8.98"/>
			<path class="st1" d="M303.14,59.06c0.08-0.23,0.13-0.41,0.17-0.51"/>
		</g>
	</g>
	<g>
		<g>
			<path class="st1" d="M275.28,58.45c0.04,0.08,0.12,0.25,0.21,0.5"/>
			<path class="st63" d="M275.88,59.94c1.42,3.52,5.38,11.83,14.51,11.52c9.66-0.34,13.44-8.9,14.55-11.98"/>
			<path class="st1" d="M305.12,58.96c0.08-0.24,0.14-0.42,0.17-0.51"/>
		</g>
	</g>
	<line class="st21" x1="201.44" y1="323.1" x2="379" y2="323.1"/>
	<g>
		<g>
			<g>
				<line class="st1" x1="201.44" y1="318.96" x2="201.44" y2="319.68"/>
				<line class="st64" x1="201.44" y1="321.14" x2="201.44" y2="326.28"/>
				<line class="st1" x1="201.44" y1="327.01" x2="201.44" y2="327.73"/>
			</g>
		</g>
		<g>
			<g>
				<line class="st1" x1="219.46" y1="318.96" x2="219.46" y2="319.68"/>
				<line class="st64" x1="219.46" y1="321.14" x2="219.46" y2="326.28"/>
				<line class="st1" x1="219.46" y1="327.01" x2="219.46" y2="327.73"/>
			</g>
		</g>
		<g>
			<g>
				<line class="st1" x1="237.62" y1="318.96" x2="237.62" y2="319.68"/>
				<line class="st64" x1="237.62" y1="321.14" x2="237.62" y2="326.28"/>
				<line class="st1" x1="237.62" y1="327.01" x2="237.62" y2="327.73"/>
			</g>
		</g>
		<g>
			<g>
				<line class="st1" x1="255.64" y1="318.96" x2="255.64" y2="319.68"/>
				<line class="st64" x1="255.64" y1="321.14" x2="255.64" y2="326.28"/>
				<line class="st1" x1="255.64" y1="327.01" x2="255.64" y2="327.73"/>
			</g>
		</g>
		<g>
			<g>
				<line class="st1" x1="272.59" y1="318.96" x2="272.59" y2="319.68"/>
				<line class="st64" x1="272.59" y1="321.14" x2="272.59" y2="326.28"/>
				<line class="st1" x1="272.59" y1="327.01" x2="272.59" y2="327.73"/>
			</g>
		</g>
		<g>
			<g>
				<line class="st1" x1="290.61" y1="318.96" x2="290.61" y2="319.68"/>
				<line class="st64" x1="290.61" y1="321.14" x2="290.61" y2="326.28"/>
				<line class="st1" x1="290.61" y1="327.01" x2="290.61" y2="327.73"/>
			</g>
		</g>
		<g>
			<g>
				<line class="st1" x1="308.77" y1="318.96" x2="308.77" y2="319.68"/>
				<line class="st64" x1="308.77" y1="321.14" x2="308.77" y2="326.28"/>
				<line class="st1" x1="308.77" y1="327.01" x2="308.77" y2="327.73"/>
			</g>
		</g>
		<g>
			<g>
				<line class="st1" x1="326.79" y1="318.96" x2="326.79" y2="319.68"/>
				<line class="st64" x1="326.79" y1="321.14" x2="326.79" y2="326.28"/>
				<line class="st1" x1="326.79" y1="327.01" x2="326.79" y2="327.73"/>
			</g>
		</g>
		<g>
			<g>
				<line class="st1" x1="342.72" y1="318.96" x2="342.72" y2="319.68"/>
				<line class="st64" x1="342.72" y1="321.14" x2="342.72" y2="326.28"/>
				<line class="st1" x1="342.72" y1="327.01" x2="342.72" y2="327.73"/>
			</g>
		</g>
		<g>
			<g>
				<line class="st1" x1="360.88" y1="318.96" x2="360.88" y2="319.68"/>
				<line class="st64" x1="360.88" y1="321.14" x2="360.88" y2="326.28"/>
				<line class="st1" x1="360.88" y1="327.01" x2="360.88" y2="327.73"/>
			</g>
		</g>
		<g>
			<g>
				<line class="st1" x1="378.9" y1="318.96" x2="378.9" y2="319.68"/>
				<line class="st64" x1="378.9" y1="321.14" x2="378.9" y2="326.28"/>
				<line class="st1" x1="378.9" y1="327.01" x2="378.9" y2="327.73"/>
			</g>
		</g>
	</g>
	<g id="XMLID_77_">
		<g>
			<path class="st21" d="M168.56,137.59h-13.59v6.47c0,3.83,3.1,6.93,6.93,6.93h6.66V137.59z"/>
			<path class="st21" d="M173.37,132.86h-23.91v9.38c0,7.89,6.4,14.29,14.28,14.29h9.62V132.86z"/>
		</g>
	</g>
	<g id="XMLID_76_">
		<g>
			<path class="st21" d="M398.43,204.35h-53.23v-22.8c0-10.55,8.56-19.1,19.11-19.1h34.12V204.35z"/>
			<path class="st21" d="M385.45,190.69h-27.81v-7.04c0-4.27,3.46-7.74,7.74-7.74h20.07V190.69z"/>
		</g>
	</g>
	<g id="XMLID_75_">
		<g>
			<path class="st21" d="M194.46,191.42h27.81v-7.05c0-4.27-3.46-7.74-7.74-7.74h-20.07L194.46,191.42L194.46,191.42z"/>
		</g>
	</g>
	<g>
		<g id="XMLID_74_">
			<g>
				<path class="st21" d="M368.88,116.59c0.24-2.52,0.37-5.07,0.37-7.66c0-2.45-0.12-4.88-0.33-7.27c-0.14-1.5-0.32-2.98-0.53-4.45
					l-1.78-8.63c-0.22-0.83-0.45-1.65-0.7-2.46c-1.46-4.9-3.39-9.59-5.73-14.04c-2.46-4.69-5.38-9.1-8.7-13.17
					c-3.29-4.05-6.98-7.76-11.01-11.08l-0.05,0.05l-12.86-8.72c-0.11-0.06-0.21-0.12-0.32-0.17c-4.38-2.33-9.01-4.25-13.84-5.71
					c-0.39-0.12-0.78-0.24-1.17-0.35l-7.92-1.84c-2.12-0.38-4.26-0.68-6.42-0.88c-2.45-0.24-4.94-0.37-7.46-0.37
					c-2.51,0-4.99,0.12-7.43,0.36c-2.25,0.22-4.47,0.53-6.66,0.92l-7.58,1.76c-0.43,0.12-0.86,0.25-1.28,0.38
					c-4.83,1.47-9.46,3.39-13.84,5.71c-0.09,0.04-0.17,0.09-0.26,0.14l-12.9,8.76l-0.06-0.06c-4.03,3.33-7.74,7.05-11.03,11.11
					h-0.01c-3.32,4.08-6.24,8.49-8.7,13.19c-2.33,4.44-4.25,9.12-5.7,14c-0.18,0.6-0.35,1.2-0.52,1.79l-2.06,10
					c-0.17,1.25-0.32,2.5-0.43,3.76c-0.22,2.38-0.35,4.8-0.35,7.25c0,2.59,0.14,5.14,0.37,7.66l0.22,0.02l1.25,8.67l0.24,1.69
					c6.43,27.62,27.26,49.67,54.13,57.73l12.5,2.64c3.31,0.42,6.67,0.67,10.09,0.67c3.58,0,7.09-0.26,10.54-0.73l11.61-2.46
					c27.33-8.02,48.49-30.48,54.75-58.61l0.21-1.46l1.17-8.16L368.88,116.59z"/>
				<polyline class="st21" points="253.64,38.96 250.88,31.38 234.91,42.04 240.43,47.82 				"/>
				<polyline class="st21" points="214.85,86.08 207.59,82.58 203.58,101.37 211.64,101.65 				"/>
				<polyline class="st21" points="212.01,116.6 204.21,115.8 205.42,127.81 213.11,125.34 				"/>
				<polyline class="st21" points="282.95,29.59 283.09,21.53 264.36,25.74 267.48,33.19 				"/>
				<polyline class="st21" points="340.48,47.83 346.01,42.03 330.04,31.39 327.28,38.96 				"/>
				<polyline class="st21" points="369.31,101.64 377.37,101.34 373.35,82.56 366.09,86.07 				"/>
				<polyline class="st21" points="368.09,124.85 375.78,127.31 376.75,115.78 368.88,116.59 				"/>
				<polyline class="st21" points="313.44,33.21 316.55,25.75 297.82,21.55 297.96,29.61 				"/>
				<polyline class="st21" points="360.76,71.79 368.08,68.57 357.43,52.58 351.98,58.52 				"/>
				<polyline class="st21" points="229.17,58.74 223.87,52.68 212.83,68.4 220.06,71.79 				"/>
			</g>
		</g>
	</g>
	<line class="st21" x1="304.66" y1="47.15" x2="310.62" y2="32.93"/>
	<g id="XMLID_73_">
		<g>
			<path class="st65" d="M168.69,329.77h-13.17v-6.05c0-3.83,3.1-6.93,6.93-6.93h6.24V329.77z"/>
			<path class="st65" d="M172.63,333.65H151.6v-11.21c0-5.26,4.26-9.53,9.53-9.53h11.5V333.65z"/>
		</g>
	</g>
	<g id="XMLID_72_">
		<g>
			<rect x="183.41" y="214.5" class="st21" width="54.86" height="38.33"/>
			<rect x="179.82" y="210.23" class="st21" width="62.04" height="45.09"/>
		</g>
	</g>
	<g id="XMLID_71_">
		<g>
			<rect x="340.86" y="214.5" class="st21" width="54.86" height="38.33"/>
			<rect x="337.15" y="210.23" class="st21" width="62.04" height="45.09"/>
		</g>
	</g>
	<g id="XMLID_70_">
		<g>
			<path class="st66" d="M25.23,330.56h21.02l-0.23-30.64h-2.11l-0.42-4.22c0-3.61-3-5.79-6.63-6.53H25.23V330.56z"/>
			<path class="st67" d="M21.6,334.27H50.1l-0.31-37.99h-2.87l-0.58-3.65c0-4.31-4.06-6.91-8.99-7.79H21.6V334.27z"/>
		</g>
	</g>
	<g id="XMLID_69_">
		<g>
			<path class="st21" d="M24.68,137.59h21.94l-0.23,31.81h-2.21l-0.44,5.22c0,3.82-3.13,6.14-6.93,6.93H24.68V137.59z"/>
			<path class="st21" d="M20.89,133.07h29.74l-0.32,39.47h-3l-0.59,3.8c0,4.47-4.24,7.18-9.39,8.1H20.89V133.07z"/>
		</g>
	</g>
	<g>
		<path class="st21" d="M161.03,156.6c-5.55-1.16-9.92-5.54-11.06-11.1c-14.7-12.5-32.64-19.85-52.01-19.85
			c-17.29,0-33.45,5.86-47.18,16.01l-0.04,5.31c13.63-11.25,30.06-17.82,47.74-17.82c38.23,0,70.6,30.72,81.59,73.11V189.2
			C175.42,176.94,168.93,165.9,161.03,156.6z"/>
		<path class="st21" d="M182.24,255.74c-8.15,47.54-42.55,83.24-83.77,83.24c-17.67,0-34.1-6.57-47.74-17.82l0.04,5.44
			c13.73,10.16,29.88,16.02,47.18,16.02c19.91,0,38.32-7.77,53.25-20.92c0.53-4.34,3.97-7.76,8.31-8.28
			c9.16-10.3,16.54-22.87,21.51-36.96"/>
		<path class="st21" d="M21.11,177.34c-2.84,5.54-5.27,11.41-7.25,17.55v11.79h1.93v0.19c1.69-7.75,4.09-15.14,7.1-22.08"/>
		<path class="st21" d="M13.11,262.99v7.99c2.1,7.01,4.8,13.68,7.99,19.94v-6.91h2.07c-2.92-6.61-5.29-13.65-7.01-21.02H13.11z"/>
		<path class="st21" d="M97.96,132.92c-17.57,0-33.87,6.71-47.26,18.14l-0.05,6.62c13.23-12.53,29.81-19.99,47.81-19.99
			c43.27,0,78.35,43.08,78.35,96.22s-35.08,96.22-78.35,96.22c-18.01,0-34.59-7.46-47.82-20l0.05,5.96
			c13.39,11.43,29.68,18.14,47.26,18.14c44.14,0,80.18-42.26,82.4-95.43v-10.44C178.14,175.19,142.1,132.92,97.96,132.92z"/>
		<path class="st21" d="M17.64,256.67c1.87,9.73,4.9,18.92,8.91,27.33h5.03c-7.27-14.6-11.45-31.76-11.45-50.12
			c0-17.93,4-34.72,10.96-49.09h-5.31c-3.84,8.43-6.71,17.62-8.43,27.32"/>
		<path class="st21" d="M50.62,162.5c12.86-13.16,29.36-21.07,47.34-21.07c41.1,0,74.41,41.28,74.41,92.19s-33.31,92.19-74.41,92.19
			c-17.99,0-34.49-7.92-47.36-21.08"/>
		<path class="st21" d="M35.64,284.02c-7.64-14.48-12.09-31.79-12.09-50.38c0-17.93,4.13-34.67,11.29-48.83"/>
		<path class="st21" d="M50.26,295.12l0.29,3.26c12.49,14.35,29.13,23.11,47.41,23.11c38.77,0,70.2-39.41,70.2-88.03
			s-31.42-88.03-70.2-88.03c-18.27,0-34.9,8.75-47.39,23.1l-0.04,4.37h-2.99l-0.6,3.8c0,3.82-3.1,6.35-7.21,7.57
			c-7.56,14.04-11.97,30.97-11.97,49.19c0,19.23,4.92,37.02,13.27,51.51c3.45,1.35,5.91,3.72,5.91,7.13l0.19,2.64"/>
		<ellipse class="st21" cx="97.96" cy="233.85" rx="65.51" ry="84.08"/>
	</g>
	<g>
		<g>
			<polyline class="st1" points="266.08,207.51 266.08,208.23 265.36,208.23 			"/>
			<line class="st68" x1="264.25" y1="208.23" x2="262.59" y2="208.23"/>
			<polyline class="st1" points="262.04,208.23 261.32,208.23 261.32,207.51 			"/>
			<line class="st68" x1="261.32" y1="206.4" x2="261.32" y2="204.74"/>
			<polyline class="st1" points="261.32,204.19 261.32,203.47 262.04,203.47 			"/>
			<line class="st68" x1="263.14" y1="203.47" x2="264.8" y2="203.47"/>
			<polyline class="st1" points="265.36,203.47 266.08,203.47 266.08,204.19 			"/>
			<line class="st68" x1="266.08" y1="205.3" x2="266.08" y2="206.96"/>
		</g>
	</g>
	<g>
		<g>
			<polyline class="st1" points="283.37,207.51 283.37,208.23 282.64,208.23 			"/>
			<line class="st68" x1="281.54" y1="208.23" x2="279.88" y2="208.23"/>
			<polyline class="st1" points="279.32,208.23 278.6,208.23 278.6,207.51 			"/>
			<line class="st68" x1="278.6" y1="206.4" x2="278.6" y2="204.74"/>
			<polyline class="st1" points="278.6,204.19 278.6,203.47 279.32,203.47 			"/>
			<line class="st68" x1="280.43" y1="203.47" x2="282.09" y2="203.47"/>
			<polyline class="st1" points="282.64,203.47 283.37,203.47 283.37,204.19 			"/>
			<line class="st68" x1="283.37" y1="205.3" x2="283.37" y2="206.96"/>
		</g>
	</g>
	<g>
		<g>
			<polyline class="st1" points="301.03,207.51 301.03,208.23 300.31,208.23 			"/>
			<line class="st68" x1="299.2" y1="208.23" x2="297.54" y2="208.23"/>
			<polyline class="st1" points="296.99,208.23 296.26,208.23 296.26,207.51 			"/>
			<line class="st68" x1="296.26" y1="206.4" x2="296.26" y2="204.74"/>
			<polyline class="st1" points="296.26,204.19 296.26,203.47 296.99,203.47 			"/>
			<line class="st68" x1="298.09" y1="203.47" x2="299.75" y2="203.47"/>
			<polyline class="st1" points="300.31,203.47 301.03,203.47 301.03,204.19 			"/>
			<line class="st68" x1="301.03" y1="205.3" x2="301.03" y2="206.96"/>
		</g>
	</g>
	<g>
		<g>
			<polyline class="st1" points="318.31,207.51 318.31,208.23 317.59,208.23 			"/>
			<line class="st68" x1="316.48" y1="208.23" x2="314.83" y2="208.23"/>
			<polyline class="st1" points="314.27,208.23 313.55,208.23 313.55,207.51 			"/>
			<line class="st68" x1="313.55" y1="206.4" x2="313.55" y2="204.74"/>
			<polyline class="st1" points="313.55,204.19 313.55,203.47 314.27,203.47 			"/>
			<line class="st68" x1="315.38" y1="203.47" x2="317.04" y2="203.47"/>
			<polyline class="st1" points="317.59,203.47 318.31,203.47 318.31,204.19 			"/>
			<line class="st68" x1="318.31" y1="205.3" x2="318.31" y2="206.96"/>
		</g>
	</g>
	<g>
		<g>
			<defs>
				<path id="SVGID_176_" d="M294.54,55.67v104.7c27.12-1.98,48.52-24.65,48.52-52.35S321.67,57.65,294.54,55.67z"/>
			</defs>
			<clipPath id="SVGID_39_">
				<use xlink:href="#SVGID_176_"  style="overflow:visible;"/>
			</clipPath>
			<g class="st69">
				<g>
					<path class="st1" d="M265.87,62.05c0.05,0.18,0.12,0.4,0.23,0.68"/>
					<path class="st23" d="M266.67,64.03c2.51,5.19,10.54,17.03,24.13,16.7c14.22-0.35,21.4-12.71,23.31-17.33"/>
					<path class="st1" d="M314.38,62.73c0.1-0.28,0.17-0.51,0.22-0.68"/>
				</g>
			</g>
		</g>
		<g>
			<defs>
				<path id="SVGID_19_" d="M294.54,55.67v104.7c27.12-1.98,48.52-24.65,48.52-52.35S321.67,57.65,294.54,55.67z"/>
			</defs>
			<clipPath id="SVGID_40_">
				<use xlink:href="#SVGID_19_"  style="overflow:visible;"/>
			</clipPath>
			<g class="st70">
				<g>
					<path class="st1" d="M262.77,64.12c0.01,0.21,0.06,0.45,0.13,0.71"/>
					<path class="st25" d="M263.39,66.2c2.64,6.17,13.43,19.19,27.42,18.85c14.74-0.36,24.36-12.77,26.94-18.59"/>
					<path class="st1" d="M318.02,65.78c0.09-0.24,0.17-0.47,0.23-0.68"/>
				</g>
			</g>
		</g>
		<g>
			<defs>
				<path id="SVGID_18_" d="M294.54,55.67v104.7c27.12-1.98,48.52-24.65,48.52-52.35S321.67,57.65,294.54,55.67z"/>
			</defs>
			<clipPath id="SVGID_41_">
				<use xlink:href="#SVGID_18_"  style="overflow:visible;"/>
			</clipPath>
			<g class="st71">
				<g>
					<path class="st1" d="M258.55,66.37c0.01,0.23,0.04,0.47,0.09,0.71"/>
					<path class="st27" d="M258.99,68.45c2.73,8.22,17.24,21.28,31.81,20.92c15.06-0.37,27.63-12.89,30.84-20.21"/>
					<path class="st1" d="M321.91,68.51c0.09-0.23,0.17-0.46,0.23-0.68"/>
				</g>
			</g>
		</g>
		<g>
			<defs>
				<path id="SVGID_17_" d="M294.54,55.67v104.7c27.12-1.98,48.52-24.65,48.52-52.35S321.67,57.65,294.54,55.67z"/>
			</defs>
			<clipPath id="SVGID_42_">
				<use xlink:href="#SVGID_17_"  style="overflow:visible;"/>
			</clipPath>
			<g class="st72">
				<g>
					<path class="st1" d="M255.16,69.19c0.05,0.22,0.11,0.46,0.18,0.7"/>
					<path class="st29" d="M255.81,71.25c3.48,8.84,17.33,22.82,35.9,22.24c16.09-0.5,29.62-13.14,32.89-21.43"/>
					<path class="st1" d="M324.85,71.38c0.08-0.23,0.15-0.46,0.21-0.68"/>
				</g>
			</g>
		</g>
		<g>
			<defs>
				<path id="SVGID_16_" d="M294.54,55.67v104.7c27.12-1.98,48.52-24.65,48.52-52.35S321.67,57.65,294.54,55.67z"/>
			</defs>
			<clipPath id="SVGID_43_">
				<use xlink:href="#SVGID_16_"  style="overflow:visible;"/>
			</clipPath>
			<g class="st73">
				<g>
					<path class="st1" d="M251.69,72.85c0.01,0.23,0.05,0.47,0.09,0.71"/>
					<path class="st31" d="M252.16,74.94c2.99,8.46,19.48,23.12,38.65,23.08c15.38-0.03,33.81-11.97,37.5-23"/>
					<path class="st1" d="M328.52,74.34c0.06-0.23,0.12-0.46,0.17-0.7"/>
				</g>
			</g>
		</g>
		<g>
			<defs>
				<path id="SVGID_15_" d="M294.54,55.67v104.7c27.12-1.98,48.52-24.65,48.52-52.35S321.67,57.65,294.54,55.67z"/>
			</defs>
			<clipPath id="SVGID_44_">
				<use xlink:href="#SVGID_15_"  style="overflow:visible;"/>
			</clipPath>
			<g class="st74">
				<g>
					<path class="st1" d="M249.12,76.27c0.09,0.22,0.19,0.44,0.29,0.66"/>
					<path class="st33" d="M250.01,78.22c6.79,13.92,22.49,24.49,41.7,24.63c18.55,0.14,36.08-15.64,39.74-24.24"/>
					<path class="st1" d="M331.7,77.95c0.09-0.24,0.16-0.46,0.22-0.68"/>
				</g>
			</g>
		</g>
		<g>
			<defs>
				<path id="SVGID_14_" d="M294.54,55.67v104.7c27.12-1.98,48.52-24.65,48.52-52.35S321.67,57.65,294.54,55.67z"/>
			</defs>
			<clipPath id="SVGID_45_">
				<use xlink:href="#SVGID_14_"  style="overflow:visible;"/>
			</clipPath>
			<g class="st75">
				<g>
					<path class="st1" d="M245.65,80.65c0.06,0.22,0.14,0.45,0.22,0.68"/>
					<path class="st35" d="M246.43,82.65c5.5,11.29,29.39,25.11,44.37,24.74c15.28-0.37,39.12-13.88,42.55-23.65"/>
					<path class="st1" d="M333.56,83.04c0.06-0.24,0.11-0.47,0.14-0.71"/>
				</g>
			</g>
		</g>
		<g>
			<defs>
				<path id="SVGID_13_" d="M294.54,55.67v104.7c27.12-1.98,48.52-24.65,48.52-52.35S321.67,57.65,294.54,55.67z"/>
			</defs>
			<clipPath id="SVGID_46_">
				<use xlink:href="#SVGID_13_"  style="overflow:visible;"/>
			</clipPath>
			<g class="st76">
				<g>
					<path class="st1" d="M243.45,84.53c0.05,0.22,0.12,0.45,0.19,0.69"/>
					<path class="st37" d="M244.2,86.54c4.54,9.08,26.17,24.93,47.51,24.97c17.29,0.04,40.33-15.62,44.55-24.2"/>
					<path class="st1" d="M336.54,86.66c0.09-0.23,0.17-0.46,0.23-0.68"/>
				</g>
			</g>
		</g>
		<g>
			<defs>
				<path id="SVGID_12_" d="M294.54,55.67v104.7c27.12-1.98,48.52-24.65,48.52-52.35S321.67,57.65,294.54,55.67z"/>
			</defs>
			<clipPath id="SVGID_47_">
				<use xlink:href="#SVGID_12_"  style="overflow:visible;"/>
			</clipPath>
			<g class="st77">
				<g>
					<path class="st1" d="M241.07,89.39c0.01,0.23,0.06,0.46,0.12,0.71"/>
					<path class="st39" d="M241.71,91.44c4.35,8.66,29.88,24.64,49.09,24.6c15.43-0.03,42.11-13.06,47.56-24.53"/>
					<path class="st1" d="M338.65,90.84c0.09-0.22,0.17-0.45,0.24-0.67"/>
				</g>
			</g>
		</g>
		<g>
			<defs>
				<path id="SVGID_11_" d="M294.54,55.67v104.7c27.12-1.98,48.52-24.65,48.52-52.35S321.67,57.65,294.54,55.67z"/>
			</defs>
			<clipPath id="SVGID_48_">
				<use xlink:href="#SVGID_11_"  style="overflow:visible;"/>
			</clipPath>
			<g class="st78">
				<g>
					<path class="st1" d="M239.01,93.68c0.1,0.22,0.21,0.43,0.32,0.64"/>
					<path class="st41" d="M240.01,95.6c8.55,14.71,32.41,24.42,51.69,24.57c18.7,0.14,43.23-14.25,48.68-23.75"/>
					<path class="st1" d="M340.73,95.78c0.11-0.22,0.21-0.44,0.3-0.66"/>
				</g>
			</g>
		</g>
		<g>
			<defs>
				<path id="SVGID_10_" d="M294.54,55.67v104.7c27.12-1.98,48.52-24.65,48.52-52.35S321.67,57.65,294.54,55.67z"/>
			</defs>
			<clipPath id="SVGID_49_">
				<use xlink:href="#SVGID_10_"  style="overflow:visible;"/>
			</clipPath>
			<g class="st79">
				<g>
					<path class="st1" d="M238.01,99.16c0.1,0.22,0.21,0.43,0.32,0.64"/>
					<path class="st43" d="M239.03,101.08c8.64,14.62,33.41,23.26,52.69,23.41c18.7,0.14,43.96-13.14,49.49-22.53"/>
					<path class="st1" d="M341.55,101.32c0.11-0.22,0.21-0.44,0.3-0.66"/>
				</g>
			</g>
		</g>
		<g>
			<defs>
				<path id="SVGID_9_" d="M294.54,55.67v104.7c27.12-1.98,48.52-24.65,48.52-52.35S321.67,57.65,294.54,55.67z"/>
			</defs>
			<clipPath id="SVGID_50_">
				<use xlink:href="#SVGID_9_"  style="overflow:visible;"/>
			</clipPath>
			<g class="st80">
				<g>
					<path class="st1" d="M238.38,107.08c0.12,0.2,0.25,0.4,0.39,0.61"/>
					<path class="st45" d="M239.67,108.83c7.25,8.37,31.68,19.95,51.14,20.2c17.88,0.22,43.06-11.81,51.04-21.48"/>
					<path class="st1" d="M342.3,106.97c0.15-0.19,0.29-0.39,0.42-0.58"/>
				</g>
			</g>
		</g>
		<g>
			<defs>
				<path id="SVGID_7_" d="M294.54,55.67v104.7c27.12-1.98,48.52-24.65,48.52-52.35S321.67,57.65,294.54,55.67z"/>
			</defs>
			<clipPath id="SVGID_51_">
				<use xlink:href="#SVGID_7_"  style="overflow:visible;"/>
			</clipPath>
			<g class="st81">
				<g>
					<path class="st1" d="M238.31,112.78c0.17,0.17,0.35,0.32,0.53,0.49"/>
					<path class="st47" d="M239.94,114.23c12.52,10.83,32.09,19.21,51.3,18.98c17.78-0.21,38.46-8.51,49.73-19.08"/>
					<path class="st1" d="M341.49,113.63c0.17-0.17,0.35-0.34,0.51-0.5"/>
				</g>
			</g>
		</g>
		<g>
			<defs>
				<path id="SVGID_6_" d="M294.54,55.67v104.7c27.12-1.98,48.52-24.65,48.52-52.35S321.67,57.65,294.54,55.67z"/>
			</defs>
			<clipPath id="SVGID_52_">
				<use xlink:href="#SVGID_6_"  style="overflow:visible;"/>
			</clipPath>
			<g class="st82">
				<g>
					<path class="st1" d="M239.15,119.55c0.17,0.16,0.35,0.32,0.53,0.48"/>
					<path class="st49" d="M240.79,120.97c11.39,9.43,31.78,16.34,50.93,16.49c18.42,0.14,42.65-10.9,48.69-17.18"/>
					<path class="st1" d="M340.89,119.75c0.17-0.19,0.31-0.39,0.42-0.58"/>
				</g>
			</g>
		</g>
		<g>
			<defs>
				<path id="SVGID_5_" d="M294.54,55.67v104.7c27.12-1.98,48.52-24.65,48.52-52.35S321.67,57.65,294.54,55.67z"/>
			</defs>
			<clipPath id="SVGID_53_">
				<use xlink:href="#SVGID_5_"  style="overflow:visible;"/>
			</clipPath>
			<g class="st83">
				<g>
					<path class="st1" d="M241.64,126.64c0.17,0.14,0.35,0.3,0.55,0.45"/>
					<path class="st51" d="M243.36,127.93c7.53,5.11,28.33,14.1,47.45,14.07c15.26-0.03,39.75-7.22,46.93-14.4"/>
					<path class="st1" d="M338.23,127.07c0.17-0.19,0.32-0.37,0.45-0.55"/>
				</g>
			</g>
		</g>
		<g>
			<defs>
				<path id="SVGID_4_" d="M294.54,55.67v104.7c27.12-1.98,48.52-24.65,48.52-52.35S321.67,57.65,294.54,55.67z"/>
			</defs>
			<clipPath id="SVGID_54_">
				<use xlink:href="#SVGID_4_"  style="overflow:visible;"/>
			</clipPath>
			<g class="st84">
				<g>
					<path class="st1" d="M244.83,133.83c0.17,0.15,0.36,0.3,0.55,0.45"/>
					<path class="st15" d="M246.56,135.11c7.14,4.71,25.19,11.24,44.24,11.21c15.2-0.03,35.93-6.14,43.53-11.72"/>
					<path class="st1" d="M334.91,134.17c0.19-0.16,0.37-0.31,0.55-0.47"/>
				</g>
			</g>
		</g>
		<g>
			<defs>
				<path id="SVGID_3_" d="M294.54,55.67v104.7c27.12-1.98,48.52-24.65,48.52-52.35S321.67,57.65,294.54,55.67z"/>
			</defs>
			<clipPath id="SVGID_55_">
				<use xlink:href="#SVGID_3_"  style="overflow:visible;"/>
			</clipPath>
			<g class="st85">
				<g>
					<path class="st1" d="M249.62,141.29c0.2,0.12,0.41,0.24,0.62,0.36"/>
					<path class="st54" d="M251.49,142.33c7.2,3.8,20.24,8.34,39.31,8.31c15.16-0.03,29.72-3.95,37.29-8.15"/>
					<path class="st1" d="M328.72,142.13c0.21-0.12,0.42-0.24,0.61-0.37"/>
				</g>
			</g>
		</g>
		<g>
			<defs>
				<path id="SVGID_2_" d="M294.54,55.67v104.7c27.12-1.98,48.52-24.65,48.52-52.35S321.67,57.65,294.54,55.67z"/>
			</defs>
			<clipPath id="SVGID_56_">
				<use xlink:href="#SVGID_2_"  style="overflow:visible;"/>
			</clipPath>
			<g class="st86">
				<g>
					<path class="st1" d="M258.4,149.61c0.22,0.08,0.45,0.16,0.68,0.24"/>
					<path class="st56" d="M260.46,150.34c6.89,2.44,14.04,4.62,29.02,5.03c13.28,0.35,23.07-2.95,30.83-5.14"/>
					<path class="st1" d="M321.04,150.03c0.23-0.06,0.46-0.13,0.69-0.19"/>
				</g>
			</g>
		</g>
		<g>
			<defs>
				<path id="SVGID_1_" d="M294.54,55.67v104.7c27.12-1.98,48.52-24.65,48.52-52.35S321.67,57.65,294.54,55.67z"/>
			</defs>
			<clipPath id="SVGID_57_">
				<use xlink:href="#SVGID_1_"  style="overflow:visible;"/>
			</clipPath>
			<g class="st87">
				<g>
					<path class="st1" d="M276.62,158.25c0.22,0.07,0.45,0.14,0.69,0.2"/>
					<path class="st58" d="M278.77,158.79c3.13,0.64,7.26,0.98,11.39,0.96c4.14-0.02,8.87-0.53,11.88-1.1"/>
					<path class="st1" d="M302.78,158.5c0.25-0.05,0.48-0.11,0.7-0.16"/>
				</g>
			</g>
		</g>
	</g>
</g>
</svg>
