<?xml version="1.0" encoding="utf-8"?>
<!-- Generator: Adobe Illustrator 24.3.0, SVG Export Plug-In . SVG Version: 6.00 Build 0)  -->
<svg version="1.1" id="Layer_1" xmlns="http://www.w3.org/2000/svg" xmlns:xlink="http://www.w3.org/1999/xlink" x="0px" y="0px"
	 viewBox="0 0 81.52 81.52" style="enable-background:new 0 0 81.52 81.52;" xml:space="preserve">
<style type="text/css">
	.st0{fill:none;stroke:#FFFFFF;stroke-width:1.4463;stroke-miterlimit:10;}
	.st1{fill:none;stroke:#FFFFFF;stroke-width:1.4463;stroke-miterlimit:10;stroke-dasharray:3.7293,3.7293;}
	.st2{fill:none;stroke:#FFFFFF;stroke-width:1.4463;stroke-miterlimit:10;stroke-dasharray:3.5353,3.5353;}
	.st3{fill:none;stroke:#FFFFFF;stroke-width:1.4463;stroke-miterlimit:10;stroke-dasharray:3.6682,3.6682;}
	.st4{fill:none;stroke:#FFFFFF;stroke-width:1.4463;stroke-miterlimit:10;stroke-dasharray:2.0766,2.0766;}
	.st5{fill:none;stroke:#FFFFFF;stroke-width:2.8925;stroke-miterlimit:10;stroke-dasharray:5.8797,5.8797;}
</style>
<g>
	<g>
		<g>
			<polyline class="st0" points="47.97,61.71 47.97,63.32 46.35,63.32 			"/>
			<line class="st1" x1="42.62" y1="63.32" x2="37.03" y2="63.32"/>
			<polyline class="st0" points="35.17,63.32 33.55,63.32 33.55,61.71 			"/>
			<line class="st2" x1="33.55" y1="58.17" x2="33.55" y2="38.73"/>
			<polyline class="st0" points="33.55,36.96 33.55,35.35 35.17,35.35 			"/>
			<line class="st1" x1="38.89" y1="35.35" x2="44.49" y2="35.35"/>
			<polyline class="st0" points="46.35,35.35 47.97,35.35 47.97,36.96 			"/>
			<line class="st2" x1="47.97" y1="40.5" x2="47.97" y2="59.94"/>
		</g>
	</g>
	<g>
		<g>
			<polyline class="st0" points="47.97,24.89 47.97,26.6 46.26,26.6 			"/>
			<line class="st3" x1="42.59" y1="26.6" x2="37.09" y2="26.6"/>
			<polyline class="st0" points="35.26,26.6 33.55,26.6 33.55,24.89 			"/>
			<line class="st4" x1="33.55" y1="22.81" x2="33.55" y2="19.7"/>
			<polyline class="st0" points="33.55,18.66 33.55,16.96 35.26,16.96 			"/>
			<line class="st3" x1="38.93" y1="16.96" x2="44.43" y2="16.96"/>
			<polyline class="st0" points="46.26,16.96 47.97,16.96 47.97,18.66 			"/>
			<line class="st4" x1="47.97" y1="20.74" x2="47.97" y2="23.85"/>
		</g>
	</g>
	<g>
		<path class="st5" d="M40.76,80.07L40.76,80.07c-21.71,0-39.31-17.6-39.31-39.31v0c0-21.71,17.6-39.31,39.31-39.31h0
			c21.71,0,39.31,17.6,39.31,39.31v0C80.07,62.47,62.47,80.07,40.76,80.07z"/>
	</g>
</g>
</svg>
