<?xml version="1.0" encoding="utf-8"?>
<!-- Generator: Adobe Illustrator 24.3.0, SVG Export Plug-In . SVG Version: 6.00 Build 0)  -->
<svg version="1.1" id="Layer_1" xmlns="http://www.w3.org/2000/svg" xmlns:xlink="http://www.w3.org/1999/xlink" x="0px" y="0px"
	 viewBox="0 0 81.5 81.5" style="enable-background:new 0 0 81.5 81.5;" xml:space="preserve">
<style type="text/css">
	.st0{fill:none;stroke:#FFFFFF;stroke-width:2.0787;stroke-miterlimit:10;}
	.st1{fill:#FFFFFF;}
	.st2{fill:none;stroke:#FFFFFF;stroke-width:1.0394;stroke-miterlimit:10;}
</style>
<g>
	<g>
		<circle class="st0" cx="40.9" cy="40.8" r="35.3"/>
		<g>
			<path class="st1" d="M45.1,5.1V0h-8.6v5.2c1.5-0.2,3-0.3,4.6-0.3C42.4,4.9,43.7,5,45.1,5.1z"/>
			<path class="st1" d="M36.4,76.3v5.2h8.6v-5.1c-1.3,0.2-2.7,0.2-4.1,0.2C39.5,76.6,37.9,76.5,36.4,76.3z"/>
			<path class="st1" d="M5.4,36.4H0v8.6h5.4c-0.2-1.4-0.3-2.9-0.3-4.3C5.1,39.3,5.2,37.9,5.4,36.4z"/>
			<path class="st1" d="M76.6,45.1h4.9v-8.6h-4.9c0.2,1.4,0.3,2.9,0.3,4.3C76.9,42.2,76.8,43.7,76.6,45.1z"/>
			<path class="st1" d="M18.7,12.6L15,8.9L8.9,15l3.8,3.8C14.5,16.5,16.5,14.4,18.7,12.6z"/>
			<path class="st1" d="M63,69.1l3.5,3.5l6.1-6.1L69.1,63C67.3,65.3,65.3,67.3,63,69.1z"/>
			<path class="st1" d="M69.1,18.5l3.5-3.5l-6.1-6.1L63,12.4C65.3,14.2,67.3,16.2,69.1,18.5z"/>
			<path class="st1" d="M12.7,62.7l-3.8,3.8l6.1,6.1l3.8-3.8C16.5,67.1,14.5,65,12.7,62.7z"/>
		</g>
	</g>
	<g>
		<circle class="st2" cx="40.9" cy="40.8" r="25.4"/>
		<g>
			<path class="st1" d="M43.9,15.2v-3.7h-6.2v3.7c1.1-0.1,2.2-0.2,3.3-0.2C41.9,15,42.9,15.1,43.9,15.2z"/>
			<path class="st1" d="M37.7,66.3V70h6.2v-3.7c-1,0.1-1.9,0.2-2.9,0.2C39.8,66.5,38.7,66.4,37.7,66.3z"/>
			<path class="st1" d="M15.4,37.7h-3.9v6.2h3.9c-0.1-1-0.2-2-0.2-3.1C15.2,39.7,15.3,38.7,15.4,37.7z"/>
			<path class="st1" d="M66.5,43.9H70v-6.2h-3.5c0.1,1,0.2,2,0.2,3.1C66.7,41.8,66.6,42.8,66.5,43.9z"/>
			<path class="st1" d="M25,20.6l-2.7-2.7l-4.4,4.4l2.7,2.7C21.9,23.3,23.3,21.9,25,20.6z"/>
			<path class="st1" d="M56.7,61.1l2.5,2.5l4.4-4.4l-2.5-2.5C59.8,58.4,58.4,59.8,56.7,61.1z"/>
			<path class="st1" d="M61.1,24.8l2.5-2.5l-4.4-4.4l-2.5,2.5C58.4,21.7,59.8,23.2,61.1,24.8z"/>
			<path class="st1" d="M20.6,56.5l-2.7,2.7l4.4,4.4l2.7-2.7C23.3,59.7,21.9,58.2,20.6,56.5z"/>
		</g>
	</g>
	<g>
		<polygon class="st1" points="42.4,36.7 39.1,36.7 36.7,39.1 36.7,42.4 39.1,44.8 42.4,44.8 44.8,42.4 44.8,39.1 		"/>
	</g>
</g>
</svg>
