<?xml version="1.0" encoding="utf-8"?>
<!-- Generator: Adobe Illustrator 23.0.6, SVG Export Plug-In . SVG Version: 6.00 Build 0)  -->
<svg version="1.1" id="Layer_1" xmlns="http://www.w3.org/2000/svg" xmlns:xlink="http://www.w3.org/1999/xlink" x="0px" y="0px"
	 viewBox="0 0 806.2 502.6" style="enable-background:new 0 0 806.2 502.6;" xml:space="preserve">
<style type="text/css">
	.st0{clip-path:url(#SVGID_2_);}
	.st1{fill:none;stroke:#FFFFFF;stroke-width:0.25;stroke-miterlimit:10;stroke-dasharray:2.801,2;}
	.st2{clip-path:url(#SVGID_4_);}
	.st3{clip-path:url(#SVGID_6_);}
	.st4{clip-path:url(#SVGID_8_);}
	.st5{clip-path:url(#SVGID_10_);}
	.st6{clip-path:url(#SVGID_12_);}
	.st7{clip-path:url(#SVGID_14_);}
	.st8{clip-path:url(#SVGID_16_);}
	.st9{clip-path:url(#SVGID_18_);}
	.st10{clip-path:url(#SVGID_20_);}
	.st11{clip-path:url(#SVGID_22_);}
	.st12{clip-path:url(#SVGID_24_);}
	.st13{clip-path:url(#SVGID_26_);}
	.st14{clip-path:url(#SVGID_28_);}
	.st15{clip-path:url(#SVGID_30_);}
	.st16{clip-path:url(#SVGID_32_);}
	.st17{clip-path:url(#SVGID_34_);}
	.st18{clip-path:url(#SVGID_36_);}
	.st19{clip-path:url(#SVGID_38_);}
	.st20{clip-path:url(#SVGID_40_);}
	.st21{clip-path:url(#SVGID_42_);}
	.st22{clip-path:url(#SVGID_44_);}
	.st23{clip-path:url(#SVGID_46_);}
	.st24{clip-path:url(#SVGID_48_);}
	.st25{clip-path:url(#SVGID_50_);}
	.st26{clip-path:url(#SVGID_52_);}
	.st27{clip-path:url(#SVGID_54_);}
	.st28{clip-path:url(#SVGID_56_);}
	.st29{clip-path:url(#SVGID_58_);}
	.st30{clip-path:url(#SVGID_60_);}
	.st31{clip-path:url(#SVGID_62_);}
	.st32{clip-path:url(#SVGID_64_);}
	.st33{clip-path:url(#SVGID_66_);}
	.st34{clip-path:url(#SVGID_68_);}
	.st35{clip-path:url(#SVGID_70_);}
	.st36{clip-path:url(#SVGID_72_);}
</style>
<g>
	<g>
		<g>
			<defs>
				<path id="SVGID_1_" d="M782.3,361.5v-8.3H779v-61.1h2.4v-8h3.4V174h-228v3.1h-23.1c-0.1,0.1-2.1,0.2-5.7,0.3
					c2-8.8,3-17.9,3-27.3c0-69-55.9-124.9-125-124.9S281.1,81,281.1,150c0,9.9,1.2,19.6,3.4,28.9c-3.4,0-5.2,0-5.3,0H255V175
					l-233.3,0.1v112.5h2.7v7.5h5.1v61.9h-3.4v8.8h-5.4v111.6l233.1-1V367.1h84.5v7.6h132.5v-9.3H557v106.5h228.5V361.5H782.3z"/>
			</defs>
			<clipPath id="SVGID_2_">
				<use xlink:href="#SVGID_1_"  style="overflow:visible;"/>
			</clipPath>
			<g class="st0">
				<g>
					<g>
						<path class="st1" d="M702.5,330.2h-0.8c0.2,0.1,0.5,0.1,0.7,0.2"/>
						<path class="st1" d="M704,330.8c6.6,1.8,13,4.1,19,6.8"/>
						<path class="st1" d="M723.6,337.9c0.2,0.1,0.5,0.2,0.7,0.3c-0.1-0.2-0.1-0.5-0.2-0.7"/>
						<path class="st1" d="M723.7,335.8c-0.2-0.8-0.3-1.7-0.4-2.6"/>
						<path class="st1" d="M723.2,332.4c0-0.2,0-0.5,0-0.8c-0.2-0.1-0.5-0.2-0.7-0.3"/>
						<path class="st1" d="M720.9,330.7c-0.8-0.3-1.6-0.6-2.5-1"/>
						<path class="st1" d="M717.6,329.4c-0.2-0.1-0.5-0.2-0.7-0.3v1h-0.8"/>
						<line class="st1" x1="714.6" y1="330.2" x2="703.3" y2="330.2"/>
					</g>
				</g>
				<g>
					<g>
						<path class="st1" d="M613.8,340c0,0.2-0.1,0.5-0.1,0.7c0.2-0.1,0.4-0.2,0.7-0.4"/>
						<path class="st1" d="M615.6,339.7c7.4-3.8,15.5-6.9,24-9.2"/>
						<path class="st1" d="M640.3,330.4c0.2-0.1,0.5-0.1,0.7-0.2h-0.8"/>
						<path class="st1" d="M625.7,330.2"/>
						<path class="st1" d="M638.9,330.2"/>
						<path class="st1" d="M625,330.2h-0.8v-0.4c-0.2,0.1-0.5,0.2-0.7,0.3"/>
						<path class="st1" d="M622.3,330.5c-2.3,1-4.7,2-6.9,3"/>
						<path class="st1" d="M614.8,333.9c-0.2,0.1-0.5,0.2-0.7,0.3v0.8"/>
						<path class="st1" d="M614.1,336.7c0,0.9-0.1,1.7-0.2,2.5"/>
					</g>
				</g>
				<g>
					<g>
						<path class="st1" d="M761.5,359c-0.2-0.2-0.3-0.4-0.5-0.6h-0.8"/>
						<line class="st1" x1="758.9" y1="358.4" x2="754.2" y2="358.4"/>
						<path class="st1" d="M753.5,358.4h-0.8c0.2,0.2,0.3,0.4,0.5,0.5"/>
						<path class="st1" d="M754.3,360c12.8,13.8,20.4,30.9,20.4,49.5c0,45.8-46.2,82.9-103.2,82.9s-103.2-37.1-103.2-82.9
							c0-18.8,7.8-36.1,20.9-50"/>
						<path class="st1" d="M589.6,358.9c0.2-0.2,0.3-0.4,0.5-0.5h-0.8"/>
						<line class="st1" x1="588" y1="358.4" x2="583.3" y2="358.4"/>
						<path class="st1" d="M582.7,358.4h-0.8c-0.2,0.2-0.3,0.4-0.5,0.6"/>
						<path class="st1" d="M580.4,360.1c-11.9,14.1-18.8,31.1-18.8,49.4c0,48.7,49.2,88.2,109.8,88.2s109.8-39.5,109.8-88.2
							c0-18.5-7.1-35.8-19.3-50"/>
					</g>
				</g>
				<g>
					<g>
						<path class="st1" d="M729.2,347.8c-16.2-9.5-36.1-15.1-57.8-15.1c-24.1,0-46.1,7-63.1,18.5"/>
						<path class="st1" d="M601.6,356.2c-17.1,14-27.7,33.2-27.7,54.4c0,43,43.7,77.9,97.5,77.9s97.5-34.9,97.5-77.9
							c0-20.8-10.2-39.6-26.8-53.6"/>
						<ellipse class="st1" cx="671.4" cy="409.5" rx="91.7" ry="73.7"/>
					</g>
				</g>
				<g>
					<g>
						<ellipse class="st1" cx="671.4" cy="410.4" rx="86.7" ry="69.2"/>
						<ellipse class="st1" cx="671.4" cy="411.5" rx="81.3" ry="64.6"/>
					</g>
				</g>
				<g>
					<g>
						<ellipse class="st1" cx="671.4" cy="411.4" rx="76.8" ry="59.7"/>
						<ellipse class="st1" cx="671.4" cy="412.4" rx="70.8" ry="55"/>
					</g>
				</g>
			</g>
			
				<use xlink:href="#SVGID_1_"  style="overflow:visible;fill:none;stroke:#FFFFFF;stroke-width:0.25;stroke-miterlimit:10;stroke-dasharray:2.801,2;"/>
		</g>
	</g>
	<g id="XMLID_51_">
		<g>
			<path class="st1" d="M614.2,284.8h-50v73.3h28c12.3,0.3,21.7-10.2,22-22L614.2,284.8L614.2,284.8z M581.9,302.7h14.9
				c0.8,0,1.4,0.6,1.4,1.4v29.1c0,4.3-3.5,7.8-7.8,7.8h-8.5c-0.8,0-1.4-0.6-1.4-1.4V304C580.5,303.3,581.1,302.7,581.9,302.7z"/>
		</g>
	</g>
	<g>
		<g id="XMLID_50_">
			<g>
				<path class="st1" d="M489.8,125.9l4.1,19.1l-8.2,0.3l-0.4,0c-0.1-1.5-0.3-3-0.5-4.5L483,132c-0.2-0.8-0.5-1.7-0.7-2.5l0.2-0.1
					L489.8,125.9z"/>
				<path class="st1" d="M493.2,159.7l-2.6,19.3l-7.8-2.5l-0.7-0.2c0.6-2,1.1-4,1.6-6l1.4-9.8l0.2,0L493.2,159.7z"/>
				<path class="st1" d="M473.6,95.5l10.8,16.2L477,115l-0.6,0.3c-2.5-4.8-5.5-9.2-8.9-13.4l0.5-0.4L473.6,95.5z"/>
				<path class="st1" d="M484.3,193.2L474,209.7l-6.1-5.5l-0.5-0.4c3.4-4.1,6.4-8.6,8.9-13.3l0.3,0.1L484.3,193.2z"/>
				<path class="st1" d="M462.7,220.7l-16,11.2l-3-7.6l0.1-0.1l-0.4-0.7c4.7-2.5,9.1-5.5,13.2-8.9l0.3,0.3L462.7,220.7z"/>
				<path class="st1" d="M442.9,81.6l2.8-7.7L462,84.8l-5.6,5.9l0,0.1l-13.1-8.9C443.1,81.8,443,81.7,442.9,81.6L442.9,81.6z"/>
				<path class="st1" d="M428.6,229.7l3.6,7.4l-19.1,4.2l-0.3-8.2l0-0.3c1.1-0.1,2.3-0.2,3.4-0.4l11.8-2.5
					C428.2,229.8,428.4,229.7,428.6,229.7L428.6,229.7z"/>
				<path class="st1" d="M428.9,75.8L428.9,75.8c-0.4,0-0.8-0.2-1.2-0.3l-8-1.9c-2.1-0.4-4.3-0.7-6.5-0.9l0.1-0.6l-0.1-8.2l19,4.3
					L428.9,75.8z"/>
				<path class="st1" d="M398.3,232.7l0,0.3l-0.3,8.2l-19.1-4.2l3.6-7.4l0.1,0l12.7,2.7C396.2,232.5,397.2,232.6,398.3,232.7z"/>
				<path class="st1" d="M398,63.9l-0.1,8.2l0.1,0.6c-2.3,0.2-4.5,0.5-6.8,0.9l-7.7,1.8c-0.4,0.1-0.9,0.3-1.3,0.4l0-0.1l-3.2-7.6
					L398,63.9z"/>
				<path class="st1" d="M368.3,223.9l-0.1,0.3l-3.4,7.5l-16.1-11.1l6.1-5.5l0.1,0.1l0.1-0.1C359,218.4,363.5,221.4,368.3,223.9z"/>
				<path class="st1" d="M368,81.6L368,81.6c-0.1,0.1-0.2,0.1-0.2,0.2l-13.1,8.9l-0.1-0.1l-5.6-5.9l16.2-10.8L368,81.6z"/>
				<path class="st1" d="M343.6,203.7l-0.5,0.4l-6,5.6l-10.5-16.4l7.5-2.6l0.6-0.3C337.2,195.1,340.2,199.6,343.6,203.7z"/>
				<path class="st1" d="M343.2,101.7l0.2,0.2c-3.4,4.2-6.4,8.6-8.9,13.4l-0.6-0.3l-7.4-3.4l11.2-16L343.2,101.7z"/>
				<path class="st1" d="M328.9,176.3l-0.6,0.2l-7.8,2.5l-2.6-19.3l7.9,0.8l0.2,0l1.5,10.5C327.9,172.8,328.4,174.6,328.9,176.3z"/>
				<path class="st1" d="M328.6,129.5l0.1,0c-0.2,0.6-0.4,1.2-0.5,1.8l-2.1,10.2c-0.2,1.3-0.3,2.5-0.4,3.8l-0.3,0l-8.2-0.3l4.1-19.1
					L328.6,129.5z"/>
			</g>
			<g>
				<path class="st1" d="M368.3,223.9c4.5,2.4,9.2,4.3,14.2,5.8"/>
				<path class="st1" d="M343.6,203.7c3.4,4.1,7.2,7.9,11.3,11.3"/>
				<path class="st1" d="M334.5,115.3c-2.4,4.5-4.3,9.3-5.8,14.2c-0.2,0.6-0.4,1.2-0.5,1.8l-2.1,10.2c-0.2,1.3-0.3,2.5-0.4,3.8
					c-0.2,2.4-0.4,4.9-0.4,7.4c0,2.6,0.1,5.2,0.4,7.8l0.2,0l1.5,10.5c0.4,1.8,0.9,3.5,1.4,5.3c1.5,4.9,3.4,9.6,5.8,14"/>
				<path class="st1" d="M354.7,90.7L354.7,90.7c-4.2,3.3-7.9,7.1-11.3,11.2"/>
				<path class="st1" d="M383.5,75.5c-0.4,0.1-0.9,0.3-1.3,0.4c-4.9,1.5-9.6,3.4-14.1,5.8c-0.1,0-0.2,0.1-0.3,0.1"/>
				<path class="st1" d="M443.2,81.8c-0.1-0.1-0.2-0.1-0.3-0.2c-4.5-2.4-9.2-4.3-14.1-5.8c-0.4-0.1-0.8-0.2-1.2-0.4l-8-1.9
					c-2.1-0.4-4.3-0.7-6.5-0.9c-2.5-0.2-5-0.4-7.6-0.4c-2.5,0-5.1,0.1-7.6,0.4"/>
				<path class="st1" d="M467.6,101.9c-3.4-4.1-7.1-7.9-11.2-11.3l0,0.1"/>
				<path class="st1" d="M482.9,132c-0.2-0.8-0.5-1.7-0.7-2.5c-1.5-5-3.5-9.7-5.8-14.3"/>
				<path class="st1" d="M485.1,160.5l0.2,0c0.2-2.6,0.4-5.2,0.4-7.8c0-2.5-0.1-4.9-0.3-7.4"/>
				<path class="st1" d="M476.2,190.5c2.4-4.5,4.4-9.2,5.9-14.2"/>
				<path class="st1" d="M456.6,214.6c3.9-3.2,7.5-6.8,10.7-10.8"/>
				<path class="st1" d="M395.2,232.4c1,0.1,2,0.2,3,0.3c2.4,0.2,4.8,0.4,7.2,0.4c2.5,0,4.9-0.1,7.3-0.4c1.1-0.1,2.3-0.2,3.4-0.4
					l11.8-2.5c0.2-0.1,0.4-0.1,0.6-0.2c5.2-1.6,10.1-3.6,14.8-6.1"/>
				<path class="st1" d="M382.5,229.7"/>
				<polyline class="st1" points="368,81.6 365.2,73.9 349,84.8 354.6,90.6 				"/>
				<polyline class="st1" points="325.7,160.5 317.8,159.7 320.4,179 328.2,176.5 				"/>
				<polyline class="st1" points="397.9,72.1 398,63.9 379,68.2 382.1,75.8 				"/>
				<polyline class="st1" points="456.4,90.6 462,84.8 445.8,73.9 442.9,81.6 				"/>
				<polyline class="st1" points="485.7,145.3 493.9,145 489.8,125.9 482.4,129.5 				"/>
				<polyline class="st1" points="482.8,176.5 490.6,179 493.2,159.7 485.3,160.5 				"/>
				<polyline class="st1" points="412.8,233 413.2,241.2 432.2,237 428.6,229.7 				"/>
				<polyline class="st1" points="443.8,224.2 443.7,224.3 446.7,231.9 462.7,220.7 456.9,214.9 				"/>
				<polyline class="st1" points="467.9,204.2 474,209.7 484.3,193.2 476.5,190.6 				"/>
				<polyline class="st1" points="477,115 484.4,111.7 473.6,95.5 468.1,101.5 				"/>
				<polyline class="st1" points="334.1,190.7 326.5,193.2 337,209.7 343.1,204.1 				"/>
				<polyline class="st1" points="354.8,215.1 354.8,215.1 348.6,220.6 364.7,231.6 368.1,224.1 				"/>
			</g>
		</g>
	</g>
	<g>
		<g>
			<defs>
				<path id="SVGID_3_" d="M400.8,78.7V224c-37.7-2.8-67.4-34.2-67.4-72.7S363.1,81.4,400.8,78.7z"/>
			</defs>
			<clipPath id="SVGID_4_">
				<use xlink:href="#SVGID_3_"  style="overflow:visible;"/>
			</clipPath>
			<g class="st2">
				<g>
					<path class="st1" d="M440.6,87.5c0,0.2-0.1,0.4-0.2,0.7"/>
					<path class="st1" d="M439.8,89.6c-3.1,6.8-14.4,24.3-33.8,23.8c-20.2-0.5-30.2-18.5-32.6-24.5"/>
					<path class="st1" d="M373.2,88.2c-0.1-0.3-0.2-0.5-0.2-0.7"/>
				</g>
			</g>
			
				<use xlink:href="#SVGID_3_"  style="overflow:visible;fill:none;stroke:#FFFFFF;stroke-width:0.25;stroke-miterlimit:10;stroke-dasharray:2.801,2;"/>
		</g>
		<g>
			<defs>
				<path id="SVGID_5_" d="M400.8,78.7V224c-37.7-2.8-67.4-34.2-67.4-72.7S363.1,81.4,400.8,78.7z"/>
			</defs>
			<clipPath id="SVGID_6_">
				<use xlink:href="#SVGID_5_"  style="overflow:visible;"/>
			</clipPath>
			<g class="st3">
				<g>
					<path class="st1" d="M444.9,90.4c0,0.2-0.1,0.5-0.1,0.7"/>
					<path class="st1" d="M444.4,92.6c-3.1,8.2-18.4,27.4-38.4,26.9c-20.9-0.5-34.4-18.4-37.6-26.3"/>
					<path class="st1" d="M368.1,92.5c-0.1-0.2-0.2-0.5-0.2-0.7"/>
				</g>
			</g>
			
				<use xlink:href="#SVGID_5_"  style="overflow:visible;fill:none;stroke:#FFFFFF;stroke-width:0.25;stroke-miterlimit:10;stroke-dasharray:2.801,2;"/>
		</g>
		<g>
			<defs>
				<path id="SVGID_7_" d="M400.8,78.7V224c-37.7-2.8-67.4-34.2-67.4-72.7S363.1,81.4,400.8,78.7z"/>
			</defs>
			<clipPath id="SVGID_8_">
				<use xlink:href="#SVGID_7_"  style="overflow:visible;"/>
			</clipPath>
			<g class="st4">
				<g>
					<path class="st1" d="M450.8,93.5c0,0.2,0,0.5-0.1,0.7"/>
					<path class="st1" d="M450.4,95.7c-3.2,11.3-23.7,30.2-44.4,29.7c-21.2-0.5-38.9-18.4-43-28.5"/>
					<path class="st1" d="M362.7,96.3c-0.1-0.2-0.2-0.5-0.2-0.7"/>
				</g>
			</g>
			
				<use xlink:href="#SVGID_7_"  style="overflow:visible;fill:none;stroke:#FFFFFF;stroke-width:0.25;stroke-miterlimit:10;stroke-dasharray:2.801,2;"/>
		</g>
		<g>
			<defs>
				<path id="SVGID_9_" d="M400.8,78.7V224c-37.7-2.8-67.4-34.2-67.4-72.7S363.1,81.4,400.8,78.7z"/>
			</defs>
			<clipPath id="SVGID_10_">
				<use xlink:href="#SVGID_9_"  style="overflow:visible;"/>
			</clipPath>
			<g class="st5">
				<g>
					<path class="st1" d="M455.5,97.4c0,0.2-0.1,0.5-0.2,0.7"/>
					<path class="st1" d="M454.8,99.6c-4.4,12.2-23.8,32.4-50.1,31.6c-22.6-0.7-41.6-18.7-45.8-30.2"/>
					<path class="st1" d="M358.6,100.2c-0.1-0.2-0.1-0.5-0.2-0.7"/>
				</g>
			</g>
			
				<use xlink:href="#SVGID_9_"  style="overflow:visible;fill:none;stroke:#FFFFFF;stroke-width:0.25;stroke-miterlimit:10;stroke-dasharray:2.801,2;"/>
		</g>
		<g>
			<defs>
				<path id="SVGID_11_" d="M400.8,78.7V224c-37.7-2.8-67.4-34.2-67.4-72.7S363.1,81.4,400.8,78.7z"/>
			</defs>
			<clipPath id="SVGID_12_">
				<use xlink:href="#SVGID_11_"  style="overflow:visible;"/>
			</clipPath>
			<g class="st6">
				<g>
					<path class="st1" d="M460.3,102.5c0,0.2,0,0.5-0.1,0.7"/>
					<path class="st1" d="M459.9,104.7c-3.5,11.6-26.7,32.8-53.9,32.8c-21.6,0-47.5-17-52.2-32.4"/>
					<path class="st1" d="M353.6,104.3c-0.1-0.2-0.1-0.5-0.2-0.7"/>
				</g>
			</g>
			
				<use xlink:href="#SVGID_11_"  style="overflow:visible;fill:none;stroke:#FFFFFF;stroke-width:0.25;stroke-miterlimit:10;stroke-dasharray:2.801,2;"/>
		</g>
		<g>
			<defs>
				<path id="SVGID_13_" d="M400.8,78.7V224c-37.7-2.8-67.4-34.2-67.4-72.7S363.1,81.4,400.8,78.7z"/>
			</defs>
			<clipPath id="SVGID_14_">
				<use xlink:href="#SVGID_13_"  style="overflow:visible;"/>
			</clipPath>
			<g class="st7">
				<g>
					<path class="st1" d="M463.9,107.3c-0.1,0.2-0.2,0.5-0.3,0.7"/>
					<path class="st1" d="M463,109.3c-9.2,19.7-31.2,34.7-58.2,34.9c-26.1,0.2-50.7-22.3-55.4-34.1"/>
					<path class="st1" d="M349.1,109.4c-0.1-0.2-0.1-0.5-0.2-0.7"/>
				</g>
			</g>
			
				<use xlink:href="#SVGID_13_"  style="overflow:visible;fill:none;stroke:#FFFFFF;stroke-width:0.25;stroke-miterlimit:10;stroke-dasharray:2.801,2;"/>
		</g>
		<g>
			<defs>
				<path id="SVGID_15_" d="M400.8,78.7V224c-37.7-2.8-67.4-34.2-67.4-72.7S363.1,81.4,400.8,78.7z"/>
			</defs>
			<clipPath id="SVGID_16_">
				<use xlink:href="#SVGID_15_"  style="overflow:visible;"/>
			</clipPath>
			<g class="st8">
				<g>
					<path class="st1" d="M468.7,113.3c-0.1,0.2-0.1,0.5-0.2,0.7"/>
					<path class="st1" d="M467.9,115.5c-7,15.8-40.8,35.5-61.9,35c-21.5-0.5-55.1-19.7-59.2-33.3"/>
					<path class="st1" d="M346.6,116.4c-0.1-0.2-0.1-0.5-0.1-0.7"/>
				</g>
			</g>
			
				<use xlink:href="#SVGID_15_"  style="overflow:visible;fill:none;stroke:#FFFFFF;stroke-width:0.25;stroke-miterlimit:10;stroke-dasharray:2.801,2;"/>
		</g>
		<g>
			<defs>
				<path id="SVGID_17_" d="M400.8,78.7V224c-37.7-2.8-67.4-34.2-67.4-72.7S363.1,81.4,400.8,78.7z"/>
			</defs>
			<clipPath id="SVGID_18_">
				<use xlink:href="#SVGID_17_"  style="overflow:visible;"/>
			</clipPath>
			<g class="st9">
				<g>
					<path class="st1" d="M471.7,118.7c0,0.2-0.1,0.5-0.2,0.7"/>
					<path class="st1" d="M471,120.8c-5.5,12.5-36.1,35.3-66.3,35.3c-24.3,0.1-56.8-22.2-62.1-34.1"/>
					<path class="st1" d="M342.4,121.5c-0.1-0.2-0.2-0.5-0.2-0.7"/>
				</g>
			</g>
			
				<use xlink:href="#SVGID_17_"  style="overflow:visible;fill:none;stroke:#FFFFFF;stroke-width:0.25;stroke-miterlimit:10;stroke-dasharray:2.801,2;"/>
		</g>
		<g>
			<defs>
				<path id="SVGID_19_" d="M400.8,78.7V224c-37.7-2.8-67.4-34.2-67.4-72.7S363.1,81.4,400.8,78.7z"/>
			</defs>
			<clipPath id="SVGID_20_">
				<use xlink:href="#SVGID_19_"  style="overflow:visible;"/>
			</clipPath>
			<g class="st10">
				<g>
					<path class="st1" d="M475,125.5c0,0.2,0,0.5-0.1,0.7"/>
					<path class="st1" d="M474.5,127.7c-5,11.8-41.3,34.9-68.5,34.8c-21.6,0-59.2-18.5-66.2-34.5"/>
					<path class="st1" d="M339.5,127.3c-0.1-0.2-0.2-0.5-0.2-0.7"/>
				</g>
			</g>
			
				<use xlink:href="#SVGID_19_"  style="overflow:visible;fill:none;stroke:#FFFFFF;stroke-width:0.25;stroke-miterlimit:10;stroke-dasharray:2.801,2;"/>
		</g>
		<g>
			<defs>
				<path id="SVGID_21_" d="M400.8,78.7V224c-37.7-2.8-67.4-34.2-67.4-72.7S363.1,81.4,400.8,78.7z"/>
			</defs>
			<clipPath id="SVGID_22_">
				<use xlink:href="#SVGID_21_"  style="overflow:visible;"/>
			</clipPath>
			<g class="st11">
				<g>
					<path class="st1" d="M477.9,131.4c-0.1,0.2-0.2,0.4-0.3,0.7"/>
					<path class="st1" d="M476.9,133.4c-11.5,20.8-45.1,34.6-72.1,34.8c-26.2,0.2-60.8-20.2-67.8-33.4"/>
					<path class="st1" d="M336.6,134.1c-0.1-0.2-0.2-0.5-0.3-0.7"/>
				</g>
			</g>
			
				<use xlink:href="#SVGID_21_"  style="overflow:visible;fill:none;stroke:#FFFFFF;stroke-width:0.25;stroke-miterlimit:10;stroke-dasharray:2.801,2;"/>
		</g>
		<g>
			<defs>
				<path id="SVGID_23_" d="M400.8,78.7V224c-37.7-2.8-67.4-34.2-67.4-72.7S363.1,81.4,400.8,78.7z"/>
			</defs>
			<clipPath id="SVGID_24_">
				<use xlink:href="#SVGID_23_"  style="overflow:visible;"/>
			</clipPath>
			<g class="st12">
				<g>
					<path class="st1" d="M479.3,139.1c-0.1,0.2-0.2,0.4-0.3,0.7"/>
					<path class="st1" d="M478.3,141.1c-11.6,20.7-46.5,33-73.5,33.2c-26.2,0.2-61.8-18.7-69-31.7"/>
					<path class="st1" d="M335.4,141.8c-0.1-0.2-0.2-0.5-0.3-0.7"/>
				</g>
			</g>
			
				<use xlink:href="#SVGID_23_"  style="overflow:visible;fill:none;stroke:#FFFFFF;stroke-width:0.25;stroke-miterlimit:10;stroke-dasharray:2.801,2;"/>
		</g>
		<g>
			<defs>
				<path id="SVGID_25_" d="M400.8,78.7V224c-37.7-2.8-67.4-34.2-67.4-72.7S363.1,81.4,400.8,78.7z"/>
			</defs>
			<clipPath id="SVGID_26_">
				<use xlink:href="#SVGID_25_"  style="overflow:visible;"/>
			</clipPath>
			<g class="st13">
				<g>
					<path class="st1" d="M478.8,150.1c-0.1,0.2-0.3,0.4-0.4,0.6"/>
					<path class="st1" d="M477.5,151.9c-9.4,11.6-44,28.3-71.5,28.6c-25.1,0.3-60.5-16.7-71.2-30.2"/>
					<path class="st1" d="M334.4,149.7c-0.1-0.2-0.3-0.4-0.4-0.6"/>
				</g>
			</g>
			
				<use xlink:href="#SVGID_25_"  style="overflow:visible;fill:none;stroke:#FFFFFF;stroke-width:0.25;stroke-miterlimit:10;stroke-dasharray:2.801,2;"/>
		</g>
		<g>
			<defs>
				<path id="SVGID_27_" d="M400.8,78.7V224c-37.7-2.8-67.4-34.2-67.4-72.7S363.1,81.4,400.8,78.7z"/>
			</defs>
			<clipPath id="SVGID_28_">
				<use xlink:href="#SVGID_27_"  style="overflow:visible;"/>
			</clipPath>
			<g class="st14">
				<g>
					<path class="st1" d="M478.9,158c-0.2,0.2-0.4,0.3-0.5,0.5"/>
					<path class="st1" d="M477.2,159.5c-17.4,15.3-44.9,27.2-71.8,26.9c-24.9-0.3-53.9-12-69.4-26.9"/>
					<path class="st1" d="M335.4,159c-0.2-0.2-0.4-0.4-0.5-0.5"/>
				</g>
			</g>
			
				<use xlink:href="#SVGID_27_"  style="overflow:visible;fill:none;stroke:#FFFFFF;stroke-width:0.25;stroke-miterlimit:10;stroke-dasharray:2.801,2;"/>
		</g>
		<g>
			<defs>
				<path id="SVGID_29_" d="M400.8,78.7V224c-37.7-2.8-67.4-34.2-67.4-72.7S363.1,81.4,400.8,78.7z"/>
			</defs>
			<clipPath id="SVGID_30_">
				<use xlink:href="#SVGID_29_"  style="overflow:visible;"/>
			</clipPath>
			<g class="st15">
				<g>
					<path class="st1" d="M477.7,167.4c-0.2,0.2-0.4,0.3-0.5,0.5"/>
					<path class="st1" d="M476,168.8c-15.7,13.3-44.4,23.2-71.3,23.4c-26,0.2-60.2-15.6-68-24.2"/>
					<path class="st1" d="M336.3,167.4c-0.2-0.2-0.3-0.4-0.4-0.6"/>
				</g>
			</g>
			
				<use xlink:href="#SVGID_29_"  style="overflow:visible;fill:none;stroke:#FFFFFF;stroke-width:0.25;stroke-miterlimit:10;stroke-dasharray:2.801,2;"/>
		</g>
		<g>
			<defs>
				<path id="SVGID_31_" d="M400.8,78.7V224c-37.7-2.8-67.4-34.2-67.4-72.7S363.1,81.4,400.8,78.7z"/>
			</defs>
			<clipPath id="SVGID_32_">
				<use xlink:href="#SVGID_31_"  style="overflow:visible;"/>
			</clipPath>
			<g class="st16">
				<g>
					<path class="st1" d="M474.3,177.2c-0.2,0.1-0.4,0.3-0.6,0.5"/>
					<path class="st1" d="M472.5,178.6c-9.9,7-39.4,20-66.5,19.9c-21.5,0-56-10.3-65.5-20.4"/>
					<path class="st1" d="M340,177.6c-0.2-0.2-0.3-0.4-0.5-0.6"/>
				</g>
			</g>
			
				<use xlink:href="#SVGID_31_"  style="overflow:visible;fill:none;stroke:#FFFFFF;stroke-width:0.25;stroke-miterlimit:10;stroke-dasharray:2.801,2;"/>
		</g>
		<g>
			<defs>
				<path id="SVGID_33_" d="M400.8,78.7V224c-37.7-2.8-67.4-34.2-67.4-72.7S363.1,81.4,400.8,78.7z"/>
			</defs>
			<clipPath id="SVGID_34_">
				<use xlink:href="#SVGID_33_"  style="overflow:visible;"/>
			</clipPath>
			<g class="st17">
				<g>
					<path class="st1" d="M469.8,187.2c-0.2,0.2-0.4,0.3-0.6,0.5"/>
					<path class="st1" d="M468,188.5c-9.5,6.6-35,16-62,16c-21.4,0-50.6-8.8-60.8-16.6"/>
					<path class="st1" d="M344.6,187.5c-0.2-0.2-0.4-0.3-0.6-0.5"/>
				</g>
			</g>
			
				<use xlink:href="#SVGID_33_"  style="overflow:visible;fill:none;stroke:#FFFFFF;stroke-width:0.25;stroke-miterlimit:10;stroke-dasharray:2.801,2;"/>
		</g>
		<g>
			<g>
				<g>
					<path class="st1" d="M463.2,197.6c-0.2,0.1-0.4,0.2-0.6,0.4"/>
					<path class="st1" d="M400.8,210.4c-21.3,0-36.6-5.5-47-11.4"/>
					<path class="st1" d="M461.2,198.7"/>
					<path class="st1" d="M353.1,198.6c-0.2-0.1-0.4-0.3-0.6-0.4"/>
				</g>
			</g>
		</g>
		<g>
			<defs>
				<path id="SVGID_35_" d="M400.8,78.7V224c-37.7-2.8-67.4-34.2-67.4-72.7"/>
			</defs>
			<clipPath id="SVGID_36_">
				<use xlink:href="#SVGID_35_"  style="overflow:visible;"/>
			</clipPath>
			<g class="st18">
				<g>
					<path class="st1" d="M451,209.1c-0.2,0.1-0.5,0.2-0.7,0.2"/>
					<path class="st1" d="M448.9,209.9c-9.8,3.5-19.7,6.7-41,7.2c-18.7,0.5-32.5-4.2-43.3-7.3"/>
					<path class="st1" d="M363.8,209.6c-0.2-0.1-0.5-0.1-0.7-0.2"/>
				</g>
			</g>
			
				<use xlink:href="#SVGID_35_"  style="overflow:visible;fill:none;stroke:#FFFFFF;stroke-width:0.25;stroke-miterlimit:10;stroke-dasharray:2.801,2;"/>
		</g>
		<g>
			<defs>
				<path id="SVGID_37_" d="M400.8,78.7V224c-37.7-2.8-67.4-34.2-67.4-72.7"/>
			</defs>
			<clipPath id="SVGID_38_">
				<use xlink:href="#SVGID_37_"  style="overflow:visible;"/>
			</clipPath>
			<g class="st19">
				<g>
					<path class="st1" d="M425.7,221.1c-0.2,0.1-0.5,0.1-0.7,0.2"/>
				</g>
			</g>
			
				<use xlink:href="#SVGID_37_"  style="overflow:visible;fill:none;stroke:#FFFFFF;stroke-width:0.25;stroke-miterlimit:10;stroke-dasharray:2.801,2;"/>
		</g>
	</g>
	<path class="st1" d="M782.3,361.5v-8.3H779v-61.1h2.4v-8h3.4V174h-228v3.1h-23.1c-0.1,0.1-2.1,0.2-5.7,0.3c2-8.8,3-17.9,3-27.3
		c0-69-55.9-124.9-125-124.9S281.1,81,281.1,150c0,9.9,1.2,19.6,3.4,28.9c-3.4,0-5.2,0-5.3,0H255V175l-233.3,0.1v112.5h2.7v7.5h5.1
		v61.9h-3.4v8.8h-5.4v111.6l233.1-1V367.1h84.5v7.6h132.5v-9.3H557v106.5h228.5V361.5H782.3z"/>
	<rect x="352.8" y="295.8" class="st1" width="105.9" height="57.6"/>
	<g id="XMLID_49_">
		<g>
			<rect x="624.4" y="290.6" class="st1" width="92.6" height="39.4"/>
		</g>
	</g>
	<path class="st1" d="M556.4,222.4H514v-17c0-9.7,7.9-17.6,17.6-17.6h24.8V222.4z"/>
	<g id="XMLID_48_">
		<g>
			<path class="st1" d="M296.4,205.4v17.2h-44v-34.8h26.4C288.6,187.8,296.4,195.7,296.4,205.4z M290.2,217.3v-14
				c0-5.3-4.3-9.6-9.6-9.6H259v23.6H290.2z"/>
		</g>
		<g>
			<path class="st1" d="M290.2,203.3c0-5.3-4.3-9.6-9.6-9.6H259v23.6h31.2"/>
		</g>
	</g>
	<g id="XMLID_47_">
		<g>
			<path class="st1" d="M329.9,257.1v28.7h-77.4v-58.6H300C316.5,227.2,329.9,240.6,329.9,257.1z M324.1,280.4v-23.2
				c0-12.5-10.2-22.7-22.7-22.7H259v45.9H324.1z"/>
		</g>
		<g>
			<path class="st1" d="M324.1,257.2c0-12.5-10.2-22.7-22.7-22.7H259v45.9h65.1"/>
		</g>
	</g>
	<g id="XMLID_46_">
		<g>
			<path class="st1" d="M642.1,186v92.3h-73.5V186L642.1,186L642.1,186z M636.9,271.8v-79.3h-63.1v79.3H636.9z"/>
		</g>
	</g>
	<g id="XMLID_45_">
		<g>
			<path class="st1" d="M774.4,185.4V277H650v-91.6H774.4z M770,271.8v-81.1H654.6v81.1H770z"/>
		</g>
		<g>
			<rect x="650" y="185.4" class="st1" width="124.4" height="91.6"/>
		</g>
	</g>
	<ellipse class="st1" cx="138.8" cy="325.4" rx="84.1" ry="108.6"/>
	<g>
		<ellipse class="st1" cx="671.5" cy="412.1" rx="61.8" ry="48.1"/>
	</g>
	<g id="XMLID_44_">
		<g>
			<path class="st1" d="M774.9,284.9h-51.7v45.3c0,15.4,12.5,27.9,27.9,27.9h23.7L774.9,284.9L774.9,284.9z"/>
		</g>
	</g>
	<line class="st1" x1="385.5" y1="66.8" x2="377.2" y2="47.1"/>
	<g>
		<g>
			<path class="st1" d="M388,82.7c0.1,0.1,0.2,0.4,0.3,0.7"/>
			<path class="st1" d="M388.9,84.8c1.8,4.1,6.5,12.2,17.5,11.8c11.7-0.5,16.1-8.9,17.5-12.5"/>
			<path class="st1" d="M424.1,83.4c0.1-0.3,0.2-0.6,0.2-0.7"/>
		</g>
	</g>
	<g>
		<g>
			<path class="st1" d="M385.4,82.5c0.1,0.1,0.2,0.3,0.3,0.7"/>
			<path class="st1" d="M386.3,84.6c2,4.9,7.5,16.4,20.1,16c13.4-0.5,18.7-12.3,20.2-16.6"/>
			<path class="st1" d="M426.9,83.2c0.1-0.3,0.2-0.6,0.2-0.7"/>
		</g>
	</g>
	<g>
		<g>
			<defs>
				<path id="SVGID_39_" d="M412.5,78.7V224c37.7-2.8,67.4-34.2,67.4-72.7S450.1,81.4,412.5,78.7z"/>
			</defs>
			<clipPath id="SVGID_40_">
				<use xlink:href="#SVGID_39_"  style="overflow:visible;"/>
			</clipPath>
			<g class="st20">
				<g>
					<path class="st1" d="M372.7,87.5c0,0.2,0.1,0.4,0.2,0.7"/>
					<path class="st1" d="M373.5,89.6c3.1,6.8,14.4,24.3,33.8,23.8c20.2-0.5,30.2-18.5,32.6-24.5"/>
					<path class="st1" d="M440.1,88.2c0.1-0.3,0.2-0.5,0.2-0.7"/>
				</g>
			</g>
			
				<use xlink:href="#SVGID_39_"  style="overflow:visible;fill:none;stroke:#FFFFFF;stroke-width:0.25;stroke-miterlimit:10;stroke-dasharray:2.801,2;"/>
		</g>
		<g>
			<defs>
				<path id="SVGID_41_" d="M412.5,78.7V224c37.7-2.8,67.4-34.2,67.4-72.7S450.1,81.4,412.5,78.7z"/>
			</defs>
			<clipPath id="SVGID_42_">
				<use xlink:href="#SVGID_41_"  style="overflow:visible;"/>
			</clipPath>
			<g class="st21">
				<g>
					<path class="st1" d="M368.4,90.4c0,0.2,0.1,0.5,0.1,0.7"/>
					<path class="st1" d="M368.9,92.6c3.1,8.2,18.4,27.4,38.4,26.9c20.9-0.5,34.4-18.4,37.6-26.3"/>
					<path class="st1" d="M445.1,92.5c0.1-0.2,0.2-0.5,0.2-0.7"/>
				</g>
			</g>
			
				<use xlink:href="#SVGID_41_"  style="overflow:visible;fill:none;stroke:#FFFFFF;stroke-width:0.25;stroke-miterlimit:10;stroke-dasharray:2.801,2;"/>
		</g>
		<g>
			<defs>
				<path id="SVGID_43_" d="M412.5,78.7V224c37.7-2.8,67.4-34.2,67.4-72.7S450.1,81.4,412.5,78.7z"/>
			</defs>
			<clipPath id="SVGID_44_">
				<use xlink:href="#SVGID_43_"  style="overflow:visible;"/>
			</clipPath>
			<g class="st22">
				<g>
					<path class="st1" d="M362.5,93.5c0,0.2,0,0.5,0.1,0.7"/>
					<path class="st1" d="M362.9,95.7c3.2,11.3,23.7,30.2,44.4,29.7c21.2-0.5,38.9-18.4,43-28.5"/>
					<path class="st1" d="M450.6,96.3c0.1-0.2,0.2-0.5,0.2-0.7"/>
				</g>
			</g>
			
				<use xlink:href="#SVGID_43_"  style="overflow:visible;fill:none;stroke:#FFFFFF;stroke-width:0.25;stroke-miterlimit:10;stroke-dasharray:2.801,2;"/>
		</g>
		<g>
			<defs>
				<path id="SVGID_45_" d="M412.5,78.7V224c37.7-2.8,67.4-34.2,67.4-72.7S450.1,81.4,412.5,78.7z"/>
			</defs>
			<clipPath id="SVGID_46_">
				<use xlink:href="#SVGID_45_"  style="overflow:visible;"/>
			</clipPath>
			<g class="st23">
				<g>
					<path class="st1" d="M357.8,97.4c0,0.2,0.1,0.5,0.2,0.7"/>
					<path class="st1" d="M358.4,99.6c4.4,12.2,23.8,32.4,50.1,31.6c22.6-0.7,41.6-18.7,45.8-30.2"/>
					<path class="st1" d="M454.6,100.2c0.1-0.2,0.1-0.5,0.2-0.7"/>
				</g>
			</g>
			
				<use xlink:href="#SVGID_45_"  style="overflow:visible;fill:none;stroke:#FFFFFF;stroke-width:0.25;stroke-miterlimit:10;stroke-dasharray:2.801,2;"/>
		</g>
		<g>
			<defs>
				<path id="SVGID_47_" d="M412.5,78.7V224c37.7-2.8,67.4-34.2,67.4-72.7S450.1,81.4,412.5,78.7z"/>
			</defs>
			<clipPath id="SVGID_48_">
				<use xlink:href="#SVGID_47_"  style="overflow:visible;"/>
			</clipPath>
			<g class="st24">
				<g>
					<path class="st1" d="M353,102.5c0,0.2,0,0.5,0.1,0.7"/>
					<path class="st1" d="M353.4,104.7c3.5,11.6,26.7,32.8,53.9,32.8c21.6,0,47.5-17,52.2-32.4"/>
					<path class="st1" d="M459.7,104.3c0.1-0.2,0.1-0.5,0.2-0.7"/>
				</g>
			</g>
			
				<use xlink:href="#SVGID_47_"  style="overflow:visible;fill:none;stroke:#FFFFFF;stroke-width:0.25;stroke-miterlimit:10;stroke-dasharray:2.801,2;"/>
		</g>
		<g>
			<defs>
				<path id="SVGID_49_" d="M412.5,78.7V224c37.7-2.8,67.4-34.2,67.4-72.7S450.1,81.4,412.5,78.7z"/>
			</defs>
			<clipPath id="SVGID_50_">
				<use xlink:href="#SVGID_49_"  style="overflow:visible;"/>
			</clipPath>
			<g class="st25">
				<g>
					<path class="st1" d="M349.4,107.3c0.1,0.2,0.2,0.5,0.3,0.7"/>
					<path class="st1" d="M350.3,109.3c9.2,19.7,31.2,34.7,58.2,34.9c26.1,0.2,50.7-22.3,55.4-34.1"/>
					<path class="st1" d="M464.1,109.4c0.1-0.2,0.1-0.5,0.2-0.7"/>
				</g>
			</g>
			
				<use xlink:href="#SVGID_49_"  style="overflow:visible;fill:none;stroke:#FFFFFF;stroke-width:0.25;stroke-miterlimit:10;stroke-dasharray:2.801,2;"/>
		</g>
		<g>
			<defs>
				<path id="SVGID_51_" d="M412.5,78.7V224c37.7-2.8,67.4-34.2,67.4-72.7S450.1,81.4,412.5,78.7z"/>
			</defs>
			<clipPath id="SVGID_52_">
				<use xlink:href="#SVGID_51_"  style="overflow:visible;"/>
			</clipPath>
			<g class="st26">
				<g>
					<path class="st1" d="M344.6,113.3c0.1,0.2,0.1,0.5,0.2,0.7"/>
					<path class="st1" d="M345.4,115.5c7,15.8,40.8,35.5,61.9,35c21.5-0.5,55.1-19.7,59.2-33.3"/>
					<path class="st1" d="M466.7,116.4c0.1-0.2,0.1-0.5,0.1-0.7"/>
				</g>
			</g>
			
				<use xlink:href="#SVGID_51_"  style="overflow:visible;fill:none;stroke:#FFFFFF;stroke-width:0.25;stroke-miterlimit:10;stroke-dasharray:2.801,2;"/>
		</g>
		<g>
			<defs>
				<path id="SVGID_53_" d="M412.5,78.7V224c37.7-2.8,67.4-34.2,67.4-72.7S450.1,81.4,412.5,78.7z"/>
			</defs>
			<clipPath id="SVGID_54_">
				<use xlink:href="#SVGID_53_"  style="overflow:visible;"/>
			</clipPath>
			<g class="st27">
				<g>
					<path class="st1" d="M341.5,118.7c0,0.2,0.1,0.5,0.2,0.7"/>
					<path class="st1" d="M342.2,120.8c5.5,12.5,36.1,35.3,66.3,35.3c24.3,0.1,56.8-22.2,62.1-34.1"/>
					<path class="st1" d="M470.9,121.5c0.1-0.2,0.2-0.5,0.2-0.7"/>
				</g>
			</g>
			
				<use xlink:href="#SVGID_53_"  style="overflow:visible;fill:none;stroke:#FFFFFF;stroke-width:0.25;stroke-miterlimit:10;stroke-dasharray:2.801,2;"/>
		</g>
		<g>
			<defs>
				<path id="SVGID_55_" d="M412.5,78.7V224c37.7-2.8,67.4-34.2,67.4-72.7S450.1,81.4,412.5,78.7z"/>
			</defs>
			<clipPath id="SVGID_56_">
				<use xlink:href="#SVGID_55_"  style="overflow:visible;"/>
			</clipPath>
			<g class="st28">
				<g>
					<path class="st1" d="M338.2,125.5c0,0.2,0,0.5,0.1,0.7"/>
					<path class="st1" d="M338.8,127.7c5,11.8,41.3,34.9,68.5,34.8c21.6,0,59.2-18.5,66.2-34.5"/>
					<path class="st1" d="M473.8,127.3c0.1-0.2,0.2-0.5,0.2-0.7"/>
				</g>
			</g>
			
				<use xlink:href="#SVGID_55_"  style="overflow:visible;fill:none;stroke:#FFFFFF;stroke-width:0.25;stroke-miterlimit:10;stroke-dasharray:2.801,2;"/>
		</g>
		<g>
			<defs>
				<path id="SVGID_57_" d="M412.5,78.7V224c37.7-2.8,67.4-34.2,67.4-72.7S450.1,81.4,412.5,78.7z"/>
			</defs>
			<clipPath id="SVGID_58_">
				<use xlink:href="#SVGID_57_"  style="overflow:visible;"/>
			</clipPath>
			<g class="st29">
				<g>
					<path class="st1" d="M335.4,131.4c0.1,0.2,0.2,0.4,0.3,0.7"/>
					<path class="st1" d="M336.4,133.4c11.5,20.8,45.1,34.6,72.1,34.8c26.2,0.2,60.8-20.2,67.8-33.4"/>
					<path class="st1" d="M476.7,134.1c0.1-0.2,0.2-0.5,0.3-0.7"/>
				</g>
			</g>
			
				<use xlink:href="#SVGID_57_"  style="overflow:visible;fill:none;stroke:#FFFFFF;stroke-width:0.25;stroke-miterlimit:10;stroke-dasharray:2.801,2;"/>
		</g>
		<g>
			<defs>
				<path id="SVGID_59_" d="M412.5,78.7V224c37.7-2.8,67.4-34.2,67.4-72.7S450.1,81.4,412.5,78.7z"/>
			</defs>
			<clipPath id="SVGID_60_">
				<use xlink:href="#SVGID_59_"  style="overflow:visible;"/>
			</clipPath>
			<g class="st30">
				<g>
					<path class="st1" d="M334,139.1c0.1,0.2,0.2,0.4,0.3,0.7"/>
					<path class="st1" d="M335,141.1c11.6,20.7,46.5,33,73.5,33.2c26.2,0.2,61.8-18.7,69-31.7"/>
					<path class="st1" d="M477.8,141.8c0.1-0.2,0.2-0.5,0.3-0.7"/>
				</g>
			</g>
			
				<use xlink:href="#SVGID_59_"  style="overflow:visible;fill:none;stroke:#FFFFFF;stroke-width:0.25;stroke-miterlimit:10;stroke-dasharray:2.801,2;"/>
		</g>
		<g>
			<defs>
				<path id="SVGID_61_" d="M412.5,78.7V224c37.7-2.8,67.4-34.2,67.4-72.7S450.1,81.4,412.5,78.7z"/>
			</defs>
			<clipPath id="SVGID_62_">
				<use xlink:href="#SVGID_61_"  style="overflow:visible;"/>
			</clipPath>
			<g class="st31">
				<g>
					<path class="st1" d="M334.5,150.1c0.1,0.2,0.3,0.4,0.4,0.6"/>
					<path class="st1" d="M335.8,151.9c9.4,11.6,44,28.3,71.5,28.6c25.1,0.3,60.5-16.7,71.2-30.2"/>
					<path class="st1" d="M478.9,149.7c0.1-0.2,0.3-0.4,0.4-0.6"/>
				</g>
			</g>
			
				<use xlink:href="#SVGID_61_"  style="overflow:visible;fill:none;stroke:#FFFFFF;stroke-width:0.25;stroke-miterlimit:10;stroke-dasharray:2.801,2;"/>
		</g>
		<g>
			<defs>
				<path id="SVGID_63_" d="M412.5,78.7V224c37.7-2.8,67.4-34.2,67.4-72.7S450.1,81.4,412.5,78.7z"/>
			</defs>
			<clipPath id="SVGID_64_">
				<use xlink:href="#SVGID_63_"  style="overflow:visible;"/>
			</clipPath>
			<g class="st32">
				<g>
					<path class="st1" d="M334.4,158c0.2,0.2,0.4,0.3,0.5,0.5"/>
					<path class="st1" d="M336.1,159.5c17.4,15.3,44.9,27.2,71.8,26.9c24.9-0.3,53.9-12,69.4-26.9"/>
					<path class="st1" d="M477.8,159c0.2-0.2,0.4-0.4,0.5-0.5"/>
				</g>
			</g>
			
				<use xlink:href="#SVGID_63_"  style="overflow:visible;fill:none;stroke:#FFFFFF;stroke-width:0.25;stroke-miterlimit:10;stroke-dasharray:2.801,2;"/>
		</g>
		<g>
			<defs>
				<path id="SVGID_65_" d="M412.5,78.7V224c37.7-2.8,67.4-34.2,67.4-72.7S450.1,81.4,412.5,78.7z"/>
			</defs>
			<clipPath id="SVGID_66_">
				<use xlink:href="#SVGID_65_"  style="overflow:visible;"/>
			</clipPath>
			<g class="st33">
				<g>
					<path class="st1" d="M335.6,167.4c0.2,0.2,0.4,0.3,0.5,0.5"/>
					<path class="st1" d="M337.2,168.8c15.7,13.3,44.4,23.2,71.3,23.4c26,0.2,60.2-15.6,67.9-24.2"/>
					<path class="st1" d="M477.4,166.8"/>
				</g>
			</g>
			
				<use xlink:href="#SVGID_65_"  style="overflow:visible;fill:none;stroke:#FFFFFF;stroke-width:0.25;stroke-miterlimit:10;stroke-dasharray:2.801,2;"/>
		</g>
		<g>
			<defs>
				<path id="SVGID_67_" d="M412.5,78.7V224c37.7-2.8,67.4-34.2,67.4-72.7S450.1,81.4,412.5,78.7z"/>
			</defs>
			<clipPath id="SVGID_68_">
				<use xlink:href="#SVGID_67_"  style="overflow:visible;"/>
			</clipPath>
			<g class="st34">
				<g>
					<path class="st1" d="M339,177.2c0.2,0.1,0.4,0.3,0.6,0.5"/>
					<path class="st1" d="M340.8,178.6c9.9,7,39.4,20,66.5,19.9c21.5,0,56-10.3,65.5-20.4"/>
					<path class="st1" d="M473.3,177.6c0.2-0.2,0.3-0.4,0.5-0.6"/>
				</g>
			</g>
			
				<use xlink:href="#SVGID_67_"  style="overflow:visible;fill:none;stroke:#FFFFFF;stroke-width:0.25;stroke-miterlimit:10;stroke-dasharray:2.801,2;"/>
		</g>
		<g>
			<defs>
				<path id="SVGID_69_" d="M412.5,78.7V224c37.7-2.8,67.4-34.2,67.4-72.7S450.1,81.4,412.5,78.7z"/>
			</defs>
			<clipPath id="SVGID_70_">
				<use xlink:href="#SVGID_69_"  style="overflow:visible;"/>
			</clipPath>
			<g class="st35">
				<g>
					<path class="st1" d="M343.5,187.2c0.2,0.2,0.4,0.3,0.6,0.5"/>
					<path class="st1" d="M345.2,188.6c9.5,6.6,35,16.2,62,16.2c21.4,0,50.6-8.9,60.9-16.8"/>
					<path class="st1" d="M468.7,187.5c0.2-0.2,0.4-0.3,0.6-0.5"/>
				</g>
			</g>
			
				<use xlink:href="#SVGID_69_"  style="overflow:visible;fill:none;stroke:#FFFFFF;stroke-width:0.25;stroke-miterlimit:10;stroke-dasharray:2.801,2;"/>
		</g>
		<g>
			<defs>
				<path id="SVGID_71_" d="M412.5,78.7V224c37.7-2.8,67.4-34.2,67.4-72.7"/>
			</defs>
			<clipPath id="SVGID_72_">
				<use xlink:href="#SVGID_71_"  style="overflow:visible;"/>
			</clipPath>
			<g class="st36">
				<g>
					<path class="st1" d="M350.1,197.6c0.2,0.1,0.4,0.2,0.6,0.4"/>
					<path class="st1" d="M352.1,198.7c9.9,5.3,29.2,10.4,55.2,11.9c21.3,0,44.9-6.7,55.3-12.6"/>
				</g>
			</g>
			
				<use xlink:href="#SVGID_71_"  style="overflow:visible;fill:none;stroke:#FFFFFF;stroke-width:0.25;stroke-miterlimit:10;stroke-dasharray:2.801,2;"/>
		</g>
		<g>
			<g>
				<g>
					<path class="st1" d="M362.3,209.1c0.2,0.1,0.5,0.2,0.7,0.2"/>
					<path class="st1" d="M412.5,217.2c18-1.1,29.7-5,40.1-9"/>
					<path class="st1" d="M371.3,210.5"/>
					<path class="st1" d="M449.5,209.6"/>
				</g>
			</g>
		</g>
	</g>
	<line class="st1" x1="282.9" y1="450" x2="529.4" y2="450"/>
	<line class="st1" x1="282.9" y1="444.2" x2="282.9" y2="456.4"/>
	<line class="st1" x1="307.9" y1="444.2" x2="307.9" y2="456.4"/>
	<line class="st1" x1="333.1" y1="444.2" x2="333.1" y2="456.4"/>
	<line class="st1" x1="358.1" y1="444.2" x2="358.1" y2="456.4"/>
	<line class="st1" x1="381.7" y1="444.2" x2="381.7" y2="456.4"/>
	<line class="st1" x1="406.7" y1="444.2" x2="406.7" y2="456.4"/>
	<line class="st1" x1="431.9" y1="444.2" x2="431.9" y2="456.4"/>
	<line class="st1" x1="456.9" y1="444.2" x2="456.9" y2="456.4"/>
	<line class="st1" x1="479.1" y1="444.2" x2="479.1" y2="456.4"/>
	<line class="st1" x1="504.3" y1="444.2" x2="504.3" y2="456.4"/>
	<line class="st1" x1="529.3" y1="444.2" x2="529.3" y2="456.4"/>
	<g id="XMLID_43_">
		<g>
			<path class="st1" d="M243.9,185.8v32.9h-13.4c-11,0-19.8-8.9-19.8-19.8v-13H243.9z M237.2,211v-18.6h-18.9v9
				c0,5.3,4.3,9.6,9.6,9.6H237.2z"/>
		</g>
		<g>
			<path class="st1" d="M237.2,192.4h-18.9v9c0,5.3,4.3,9.6,9.6,9.6h9.2V192.4z"/>
			<path class="st1" d="M243.9,185.8h-33.2v13c0,10.9,8.9,19.8,19.8,19.8h13.4V185.8z"/>
		</g>
	</g>
	<g id="XMLID_42_">
		<g>
			<path class="st1" d="M556.4,226.9v58.2h-73.9v-31.6c0-14.6,11.9-26.5,26.5-26.5H556.4z M538.4,266.1v-20.5h-27.9
				c-5.9,0-10.7,4.8-10.7,10.7v9.8H538.4z"/>
		</g>
	</g>
	<g id="XMLID_41_">
		<g>
			<path class="st1" d="M273.2,267.1h38.6v-9.8c0-5.9-4.8-10.7-10.7-10.7h-27.9V267.1z"/>
		</g>
	</g>
	<g>
		<g id="XMLID_40_">
			<g>
				<path class="st1" d="M521.6,116l5.6,26.1l-11.2,0.4l-0.5,0c-0.2-2.1-0.4-4.1-0.7-6.2l-2.5-12c-0.3-1.2-0.6-2.3-1-3.4l0.2-0.1
					L521.6,116z"/>
				<polygon class="st1" points="526.3,162.1 525,178.1 514.3,174.7 513.5,174.6 515.2,163.3 515.4,163.2 				"/>
				<path class="st1" d="M499.5,74.4l14.8,22.2l-10.2,4.5l-0.8,0.4c-3.4-6.5-7.5-12.6-12.1-18.3l0.7-0.6L499.5,74.4z"/>
				<path class="st1" d="M457.6,55.5l3.8-10.5l22.2,14.8l-7.7,8l-0.1,0.1L458,55.8C457.9,55.7,457.7,55.6,457.6,55.5L457.6,55.5z"/>
				<path class="st1" d="M438.4,47.5l0,0.1c-0.5-0.2-1.1-0.3-1.6-0.5l-11-2.6c-2.9-0.5-5.9-0.9-8.9-1.2l0.1-0.8l-0.2-11.2l26,5.8
					L438.4,47.5z"/>
				<path class="st1" d="M396.3,31.3l-0.2,11.2l0.1,0.8c-3.1,0.3-6.2,0.7-9.2,1.3L376.4,47c-0.6,0.2-1.2,0.3-1.8,0.5l0-0.1
					l-4.3-10.4L396.3,31.3z"/>
				<path class="st1" d="M355.4,55.5L355.4,55.5c-0.1,0.1-0.2,0.2-0.3,0.2l-17.9,12.2l-0.1-0.1l-7.7-8L351.5,45L355.4,55.5z"/>
				<path class="st1" d="M321.4,82.9l0.3,0.3c-4.6,5.7-8.7,11.8-12.1,18.3l-0.9-0.5l-10-4.7L314,74.5L321.4,82.9z"/>
				<path class="st1" d="M301.5,120.9l0.2,0.1c-0.2,0.8-0.5,1.7-0.7,2.5l-2.9,13.9c-0.2,1.7-0.4,3.5-0.6,5.2l-0.5,0l-11.2-0.4
					l5.6-26.1L301.5,120.9z"/>
				<polygon class="st1" points="297.9,163.3 299.6,175.3 299.1,175.4 288.4,178.8 286.8,162.1 297.6,163.3 				"/>
			</g>
			<g>
				<path class="st1" d="M515.4,163.2c0.3-3.5,0.5-7,0.5-10.6c0-3.4-0.2-6.8-0.5-10.1c-0.2-2.1-0.4-4.1-0.7-6.2l-2.5-12
					c-0.3-1.2-0.6-2.3-1-3.4c-2-6.8-4.7-13.3-8-19.5c-3.4-6.5-7.5-12.6-12.1-18.3c-4.6-5.6-9.7-10.8-15.3-15.4l-0.1,0.1L458,55.8
					c-0.1-0.1-0.3-0.2-0.4-0.2c-6.1-3.2-12.5-5.9-19.2-7.9c-0.5-0.2-1.1-0.3-1.6-0.5l-11-2.6c-2.9-0.5-5.9-0.9-8.9-1.2
					c-3.4-0.3-6.9-0.5-10.4-0.5c-3.5,0-6.9,0.2-10.3,0.5c-3.1,0.3-6.2,0.7-9.2,1.3l-10.5,2.5c-0.6,0.2-1.2,0.3-1.8,0.5
					c-6.7,2-13.1,4.7-19.2,7.9c-0.1,0.1-0.2,0.1-0.4,0.2l-17.9,12.2l-0.1-0.1c-5.6,4.6-10.7,9.8-15.3,15.4
					c-4.6,5.7-8.7,11.8-12.1,18.3c-3.2,6.2-5.9,12.7-7.9,19.4c-0.2,0.8-0.5,1.7-0.7,2.5l-2.9,13.9c-0.2,1.7-0.4,3.5-0.6,5.2
					c-0.3,3.3-0.5,6.7-0.5,10.1c0,3.6,0.2,7.1,0.5,10.6l0.3,0l1.7,12l0.3,2.4c8.9,38.3,37.9,68.9,75.2,80.1l17.4,3.7
					c4.6,0.6,9.3,0.9,14,0.9c5,0,9.9-0.4,14.6-1l16.1-3.4c37.9-11.1,67.3-42.3,76-81.4l0.3-2l1.6-11.3L515.4,163.2z"/>
				<polyline class="st1" points="355.4,55.5 351.5,45 329.4,59.7 337,67.8 				"/>
				<path class="st1" d="M285.9,142.1"/>
				<polyline class="st1" points="297.6,163.3 286.8,162.1 288.4,178.8 299.1,175.4 				"/>
				<line class="st1" x1="461.4" y1="45" x2="457.6" y2="55.5"/>
				<path class="st1" d="M483.6,59.7"/>
				<path class="st1" d="M475.9,67.8"/>
				<path class="st1" d="M416.9,42.5"/>
				<path class="st1" d="M438.4,47.5"/>
				<path class="st1" d="M298.7,96.3"/>
				<path class="st1" d="M321.4,82.9"/>
			</g>
		</g>
	</g>
	<line class="st1" x1="426.2" y1="66.8" x2="434.5" y2="47.1"/>
	<g id="XMLID_39_">
		<g>
			<path class="st1" d="M243.2,436.5v29.7H213v-16.5c0-7.3,5.9-13.2,13.2-13.2L243.2,436.5L243.2,436.5z M237.5,460.7v-18.6h-9.2
				c-5.3,0-9.6,4.3-9.6,9.6v9H237.5z"/>
		</g>
	</g>
	<g id="XMLID_38_">
		<g>
			<path class="st1" d="M339,293.3v62.6h-86.1v-62.6L339,293.3L339,293.3z M334,352.4v-53.2h-76.2v53.2H334z"/>
		</g>
		<g>
			<rect x="252.9" y="293.3" class="st1" width="86.1" height="62.6"/>
		</g>
	</g>
	<g id="XMLID_37_">
		<g>
			<path class="st1" d="M557.5,293.3v62.6h-86.1v-62.6L557.5,293.3L557.5,293.3z M552.6,352.4v-53.2h-76.2v53.2H552.6z"/>
		</g>
		<g>
			<rect x="471.3" y="293.3" class="st1" width="86.1" height="62.6"/>
		</g>
	</g>
	<g id="XMLID_36_">
		<g>
			<path class="st1" d="M73.1,411.7l0.4,54.8H32.2v-71.3h22.8c7.2,1.3,13,5,13,11.2l0.8,5.3L73.1,411.7L73.1,411.7z M67.9,461.1
				l-0.3-44.2h-3.1l-0.6-6.1c0-5.2-4.3-8.3-9.6-9.4H37.5v59.7H67.9z"/>
		</g>
	</g>
	<g id="XMLID_35_">
		<g>
			<path class="st1" d="M73.5,186.1l-0.4,54.8h-4.2l-0.8,5.3c0,6.2-5.9,10-13,11.2H32.2v-71.3H73.5z M67.6,236.6l0.3-44.2H37.5v61
				h16.9c5.3-1.1,9.6-4.3,9.6-9.6l0.6-7.2H67.6z"/>
		</g>
		<g>
			<path class="st1" d="M37.5,192.4h30.5l-0.3,44.2h-3.1l-0.6,7.2c0,5.3-4.3,8.5-9.6,9.6H37.5V192.4z"/>
		</g>
	</g>
	<g>
		<path class="st1" d="M226.8,218.8c-7.7-1.6-13.8-7.7-15.4-15.4c-20.4-17.4-45.3-27.6-72.2-27.6c-24,0-46.4,8.1-65.5,22.2l-0.1,7.4
			c18.9-15.6,41.7-24.7,66.3-24.7c53.1,0,98,42.7,113.3,101.5V264C246.8,247,237.8,231.7,226.8,218.8z"/>
		<path class="st1" d="M256.2,356.4c-11.3,66-59.1,115.6-116.3,115.6c-24.5,0-47.3-9.1-66.3-24.7l0.1,7.5
			c19.1,14.1,41.5,22.2,65.5,22.2c27.6,0,53.2-10.8,73.9-29c0.7-6,5.5-10.8,11.5-11.5c12.7-14.3,23-31.8,29.9-51.3"/>
		<path class="st1" d="M32.5,247.6c-3.9,7.7-7.3,15.8-10.1,24.4v16.4h2.7v0.3c2.4-10.8,5.7-21,9.9-30.6"/>
		<path class="st1" d="M35.4,395.7c-4.1-9.2-7.3-19-9.7-29.2h-4.2v11.1c2.9,9.7,6.7,19,11.1,27.7"/>
		<path class="st1" d="M32.5,395.7"/>
		<path class="st1" d="M139.2,185.9c-24.4,0-47,9.3-65.6,25.2l-0.1,9.2c18.4-17.4,41.4-27.8,66.4-27.8
			c60.1,0,108.8,59.8,108.8,133.6S200,459.7,139.9,459.7c-25,0-48-10.4-66.4-27.8l0.1,8.3c18.6,15.9,41.2,25.2,65.6,25.2
			c61.3,0,111.3-58.7,114.4-132.5v-14.5C250.6,244.6,200.5,185.9,139.2,185.9z"/>
		<path class="st1" d="M27.7,357.7c2.6,13.5,6.8,26.3,12.4,38h7c-10.1-20.3-15.9-44.1-15.9-69.6c0-24.9,5.6-48.2,15.2-68.2H39
			c-5.3,11.7-9.3,24.5-11.7,37.9"/>
		<path class="st1" d="M73.5,227c17.9-18.3,40.8-29.2,65.7-29.2c57.1,0,103.3,57.3,103.3,128s-46.2,128-103.3,128
			c-25,0-47.9-11-65.8-29.3"/>
		<path class="st1" d="M52.7,395.7c-10.6-20.1-16.8-44.1-16.8-70c0-24.9,5.7-48.1,15.7-67.8"/>
		<path class="st1" d="M48.3,326c0-64.5,40.7-116.7,90.9-116.7s90.9,52.3,90.9,116.7s-40.7,116.7-90.9,116.7S48.3,390.5,48.3,326z
			 M68.4,406.9l0.3,3.7 M73,411.1l0.4,4.5c17.3,19.9,40.5,32.1,65.8,32.1c53.8,0,97.5-54.7,97.5-122.2S193,203.3,139.2,203.3
			c-25.4,0-48.5,12.1-65.8,32.1l-0.1,6.1h-4.2l-0.8,5.3c0,5.3-4.3,8.8-10,10.5c-10.5,19.5-16.6,43-16.6,68.3
			c0,26.7,6.8,51.4,18.4,71.5"/>
	</g>
</g>
</svg>
